<svg width="38" height="38" viewBox="0 0 38 38" fill="none" xmlns="http://www.w3.org/2000/svg">
<g clip-path="url(#clip0_29_62)">
<path d="M18.5973 0C8.32728 0 0 8.32728 0 18.5973C0 28.8673 8.32728 37.1946 18.5973 37.1946C28.8673 37.1946 37.1946 28.8673 37.1946 18.5973C37.1946 8.32728 28.8673 0 18.5973 0ZM18.5973 34.0397C10.0708 34.0397 3.1549 27.1239 3.1549 18.5973C3.1549 10.0708 10.0708 3.1549 18.5973 3.1549C27.1239 3.1549 34.0397 10.0708 34.0397 18.5973C34.0397 27.1239 27.1239 34.0397 18.5973 34.0397ZM20.5774 17.6342L19.523 17.3893V11.8143C21.1005 12.0301 22.076 13.0181 22.2421 14.2303C22.2628 14.3963 22.404 14.5167 22.57 14.5167H24.4339C24.629 14.5167 24.7826 14.3465 24.766 14.1514C24.5128 11.5652 22.3832 9.90473 19.5396 9.6183V8.26086C19.5396 8.07821 19.3902 7.92877 19.2075 7.92877H18.0411C17.8584 7.92877 17.709 8.07821 17.709 8.26086V9.63075C14.7699 9.91718 12.4702 11.5403 12.4702 14.5707C12.4702 17.3769 14.5375 18.7302 16.7085 19.2491L17.7339 19.5106V25.4343C15.899 25.1894 14.8695 24.2097 14.6578 22.8896C14.6329 22.7319 14.4918 22.6157 14.3299 22.6157H12.412C12.2169 22.6157 12.0633 22.7817 12.08 22.9768C12.2668 25.26 13.9978 27.3605 17.6924 27.6303V28.9338C17.6924 29.1164 17.8418 29.2659 18.0245 29.2659H19.2034C19.386 29.2659 19.5355 29.1164 19.5355 28.9296L19.5272 27.6137C22.7776 27.3273 25.1022 25.5879 25.1022 22.4662C25.0981 19.5853 23.2674 18.2984 20.5774 17.6342ZM17.7297 16.9617C17.4973 16.8953 17.3021 16.8331 17.107 16.7542C15.7039 16.2477 15.0522 15.43 15.0522 14.3756C15.0522 12.8687 16.1938 12.0094 17.7297 11.8143V16.9617ZM19.523 25.4468V19.8966C19.6517 19.934 19.7679 19.9631 19.8883 19.988C21.8518 20.5857 22.5119 21.416 22.5119 22.6904C22.5119 24.3135 21.2914 25.289 19.523 25.4468Z" fill="#0D1925"/>
</g>
<defs>
<clipPath id="clip0_29_62">
<rect width="37.1946" height="37.1946" fill="white"/>
</clipPath>
</defs>
</svg>
