<svg width="38" height="38" viewBox="0 0 38 38" fill="none" xmlns="http://www.w3.org/2000/svg">
<path d="M34.3718 29.3904H31.0509V26.0694C31.0509 25.8868 30.9014 25.7373 30.7188 25.7373H28.7262C28.5436 25.7373 28.3941 25.8868 28.3941 26.0694V29.3904H25.0732C24.8905 29.3904 24.7411 29.5398 24.7411 29.7224V31.715C24.7411 31.8977 24.8905 32.0471 25.0732 32.0471H28.3941V35.3681C28.3941 35.5507 28.5436 35.7002 28.7262 35.7002H30.7188C30.9014 35.7002 31.0509 35.5507 31.0509 35.3681V32.0471H34.3718C34.5545 32.0471 34.7039 31.8977 34.7039 31.715V29.7224C34.7039 29.5398 34.5545 29.3904 34.3718 29.3904ZM12.8479 18.0327C12.8106 17.6716 12.7898 17.3063 12.7898 16.9368C12.7898 16.2768 12.8521 15.6333 12.9683 15.0065C12.9974 14.8571 12.9185 14.7035 12.7815 14.6412C12.2169 14.388 11.698 14.0393 11.2497 13.5992C10.7214 13.087 10.3057 12.4703 10.0291 11.7884C9.75251 11.1066 9.62107 10.3745 9.6432 9.63901C9.68056 8.30648 10.2161 7.04037 11.1501 6.08559C12.1754 5.03534 13.5536 4.46248 15.019 4.47908C16.3432 4.49154 17.6218 5.00213 18.589 5.90709C18.9169 6.21428 19.1992 6.55468 19.4358 6.91998C19.5189 7.04867 19.6808 7.10263 19.8219 7.05282C20.5525 6.7996 21.3246 6.6211 22.1175 6.53807C22.35 6.51317 22.4828 6.26409 22.379 6.05654C21.0299 3.38732 18.2735 1.5442 15.0854 1.49438C10.4859 1.42381 6.65019 5.19724 6.65019 9.79675C6.65019 12.4037 7.84989 14.7284 9.73037 16.2519C8.4103 16.8621 7.194 17.7048 6.1396 18.7592C3.86475 21.0299 2.57788 24.027 2.49485 27.2276C2.49375 27.2719 2.50152 27.316 2.51771 27.3572C2.5339 27.3985 2.55819 27.4361 2.58914 27.4678C2.62009 27.4995 2.65707 27.5247 2.69792 27.5419C2.73876 27.5591 2.78263 27.568 2.82695 27.568H5.15577C5.33427 27.568 5.48371 27.4268 5.48786 27.2483C5.56673 24.8407 6.54226 22.5866 8.2567 20.8763C9.47715 19.6558 10.9716 18.809 12.603 18.398C12.7607 18.3524 12.8687 18.1988 12.8479 18.0327ZM31.549 16.9368C31.549 12.3954 27.9001 8.70499 23.3753 8.63442C18.7758 8.56385 14.9443 12.3373 14.9443 16.9368C14.9443 19.5437 16.1481 21.8684 18.0244 23.3919C16.6907 24.0101 15.4765 24.8589 14.4378 25.8992C12.163 28.1699 10.8761 31.1671 10.7931 34.3635C10.792 34.4078 10.7997 34.4519 10.8159 34.4931C10.8321 34.5344 10.8564 34.572 10.8874 34.6037C10.9183 34.6354 10.9553 34.6606 10.9961 34.6778C11.037 34.695 11.0809 34.7039 11.1252 34.7039H13.4498C13.6283 34.7039 13.7778 34.5627 13.7819 34.3842C13.8608 31.9765 14.8363 29.7224 16.5508 28.0122C18.3399 26.223 20.7144 25.2392 23.2466 25.2392C27.8295 25.2392 31.549 21.5239 31.549 16.9368ZM27.0035 20.6936C25.9989 21.6982 24.6663 22.2503 23.2466 22.2503C21.8269 22.2503 20.4944 21.6982 19.4898 20.6936C18.9885 20.1949 18.5924 19.6007 18.325 18.9461C18.0576 18.2915 17.9243 17.5899 17.9331 16.8828C17.9456 15.5212 18.4894 14.2053 19.44 13.2298C20.4363 12.2086 21.7688 11.6399 23.1927 11.6233C24.5999 11.6108 25.9657 12.1588 26.9703 13.1426C27.9997 14.1514 28.5643 15.5005 28.5643 16.9368C28.5602 18.3565 28.008 19.689 27.0035 20.6936Z" fill="#0D1925"/>
</svg>
