<svg width="38" height="41" viewBox="0 0 38 41" fill="none" xmlns="http://www.w3.org/2000/svg">
<path d="M35.0402 13.0601L24.5003 11.3932L19.7887 0.998462C19.66 0.713861 19.4483 0.483471 19.1868 0.343429C18.5309 -0.00893338 17.7339 0.284702 17.4059 0.998462L12.6943 11.3932L2.15447 13.0601C1.86389 13.1053 1.59822 13.2544 1.39481 13.4802C1.1489 13.7553 1.01339 14.1253 1.01806 14.509C1.02273 14.8928 1.1672 15.2588 1.41971 15.5266L9.04544 23.6174L7.24383 35.0421C7.20158 35.3079 7.22861 35.5812 7.32184 35.8311C7.41507 36.081 7.57078 36.2975 7.77131 36.456C7.97185 36.6144 8.20918 36.7086 8.45639 36.7278C8.7036 36.747 8.95081 36.6904 9.16998 36.5645L18.5973 31.1706L28.0247 36.5645C28.282 36.7136 28.5809 36.7632 28.8674 36.709C29.5897 36.5735 30.0754 35.8281 29.9508 35.0421L28.1492 23.6174L35.7749 15.5266C35.9825 15.3053 36.1195 15.0162 36.161 14.6999C36.2731 13.9094 35.7666 13.1776 35.0402 13.0601ZM24.9403 22.479L26.4389 31.9793L18.5973 27.4979L10.7557 31.9838L12.2543 22.4835L5.9113 15.7525L14.6786 14.3656L18.5973 5.72373L22.516 14.3656L31.2834 15.7525L24.9403 22.479Z" fill="#0D1925" fill-opacity="0.7"/>
</svg>
