<svg width="38" height="38" viewBox="0 0 38 38" fill="none" xmlns="http://www.w3.org/2000/svg">
<path d="M25.5007 24.0104C26.5053 23.4708 27.6552 23.1636 28.8798 23.1636H28.884C29.0085 23.1636 29.0666 23.0141 28.9753 22.9311C27.7018 21.7882 26.247 20.8651 24.6705 20.1996C24.6539 20.1913 24.6373 20.1872 24.6207 20.1789C27.1986 18.3067 28.8757 15.2639 28.8757 11.8308C28.8757 6.14371 24.2761 1.53589 18.6015 1.53589C12.9268 1.53589 8.33144 6.14371 8.33144 11.8308C8.33144 15.2639 10.0085 18.3067 12.5906 20.1789C12.574 20.1872 12.5574 20.1913 12.5407 20.1996C10.6852 20.9842 9.02054 22.1092 7.58838 23.5455C6.16449 24.9668 5.03089 26.6517 4.25083 28.5061C3.48333 30.3221 3.06911 32.2678 3.03038 34.2389C3.02927 34.2832 3.03704 34.3273 3.05323 34.3686C3.06943 34.4098 3.09371 34.4474 3.12466 34.4791C3.15561 34.5109 3.19259 34.5361 3.23344 34.5533C3.27428 34.5705 3.31815 34.5793 3.36247 34.5793H5.84903C6.02753 34.5793 6.17698 34.434 6.18113 34.2555C6.26415 31.0508 7.54687 28.0495 9.81757 25.7747C12.163 23.4209 15.2847 22.1258 18.6056 22.1258C20.9594 22.1258 23.2176 22.7775 25.1645 23.998C25.2145 24.0294 25.2719 24.0471 25.331 24.0493C25.39 24.0515 25.4485 24.0381 25.5007 24.0104ZM18.6056 18.9709C16.7044 18.9709 14.9152 18.2278 13.5661 16.8787C12.9023 16.2166 12.3761 15.4297 12.0177 14.5634C11.6593 13.697 11.4759 12.7684 11.478 11.8308C11.478 9.92544 12.2211 8.13212 13.5661 6.78299C14.9111 5.43385 16.7002 4.69079 18.6056 4.69079C20.511 4.69079 22.296 5.43385 23.6452 6.78299C24.309 7.44506 24.8352 8.23194 25.1936 9.09828C25.5519 9.96462 25.7353 10.8933 25.7332 11.8308C25.7332 13.7362 24.9902 15.5295 23.6452 16.8787C22.296 18.2278 20.5069 18.9709 18.6056 18.9709ZM33.8737 28.8507H30.3867V25.3637C30.3867 25.181 30.2373 25.0316 30.0546 25.0316H27.7299C27.5473 25.0316 27.3978 25.181 27.3978 25.3637V28.8507H23.9108C23.7282 28.8507 23.5788 29.0001 23.5788 29.1828V31.5075C23.5788 31.6901 23.7282 31.8395 23.9108 31.8395H27.3978V35.3265C27.3978 35.5092 27.5473 35.6586 27.7299 35.6586H30.0546C30.2373 35.6586 30.3867 35.5092 30.3867 35.3265V31.8395H33.8737C34.0563 31.8395 34.2058 31.6901 34.2058 31.5075V29.1828C34.2058 29.0001 34.0563 28.8507 33.8737 28.8507Z" fill="#0D1925"/>
</svg>
