<svg width="139" height="28" viewBox="0 0 139 28" fill="none" xmlns="http://www.w3.org/2000/svg">
<path d="M5.79199 1.75993C7.28532 1.6746 8.55466 1.78126 9.59999 2.07993C12.3733 2.91193 13.76 4.6826 13.76 7.39193C13.76 9.58926 12.768 10.6986 10.784 10.7199L10.944 12.0319C13.376 13.1413 14.592 15.0506 14.592 17.7599C14.592 18.8053 14.4213 19.7119 14.08 20.4799C13.1413 22.7199 11.5413 23.8826 9.27999 23.9679C8.63999 23.9893 7.86132 24.0213 6.94399 24.0639C6.04799 24.0853 5.00266 24.1066 3.80799 24.1279H2.14399C1.97332 24.1279 1.77065 24.1386 1.53599 24.1599C1.30132 24.1813 1.06666 24.1813 0.831988 24.1599C0.597322 24.1386 0.394655 24.0959 0.223988 24.0319C0.074655 23.9466 -1.16825e-05 23.8186 -1.16825e-05 23.6479V2.23993C-1.16825e-05 2.11193 0.0959883 2.02659 0.287988 1.98393C0.479988 1.94126 0.693322 1.91993 0.927988 1.91993C1.16265 1.8986 1.38666 1.8986 1.59999 1.91993C1.81332 1.91993 1.94132 1.91993 1.98399 1.91993C2.60266 1.8986 3.23199 1.87726 3.87199 1.85593C4.51199 1.81326 5.15199 1.78126 5.79199 1.75993ZM4.79999 5.21593C4.71466 5.42926 4.76799 5.59993 4.95999 5.72793C5.17332 5.85593 5.39732 5.79193 5.63199 5.53593V6.04793L4.44799 9.88793C4.36266 10.2079 4.46932 10.3679 4.76799 10.3679C5.47199 10.3679 6.31466 10.2613 7.29599 10.0479C8.29866 9.81326 8.79999 9.15193 8.79999 8.06393C8.79999 7.57326 8.63999 7.1466 8.31999 6.78393C8.02132 6.39993 7.65866 6.0906 7.23199 5.85593C6.80532 5.62126 6.35732 5.4506 5.88799 5.34393C5.43999 5.23726 5.07732 5.1946 4.79999 5.21593ZM5.47199 14.1759L4.44799 14.5279V19.8399L4.63999 19.9999C4.68266 20.0213 4.77866 20.0319 4.92799 20.0319C5.07732 20.0319 5.26932 20.0319 5.50399 20.0319C6.65599 20.0319 7.60532 19.8613 8.35199 19.5199C9.09866 19.1786 9.47199 18.4213 9.47199 17.2479C9.47199 15.7759 8.68266 14.8159 7.10399 14.3679C6.57066 14.2186 6.02666 14.1546 5.47199 14.1759ZM27.5257 1.24793C27.7604 1.1626 28.1124 1.20526 28.5817 1.37593C29.0724 1.52526 29.5524 1.65326 30.0217 1.75993C30.5764 1.90926 30.8751 2.22926 30.9177 2.71993C30.9817 3.2106 31.0137 3.87193 31.0137 4.70393V6.39993C30.9711 8.46926 30.9284 10.5493 30.8857 12.6399C30.8431 14.7093 30.7684 16.7786 30.6617 18.8479C30.5764 20.1493 30.2137 21.2373 29.5737 22.1119C28.9337 22.9653 28.0804 23.5839 27.0137 23.9679C26.0964 24.2879 25.1044 24.4479 24.0377 24.4479C21.0511 24.4479 18.9497 23.1253 17.7337 20.4799C17.4137 19.7546 17.2537 18.8159 17.2537 17.6639V2.55993C17.2537 2.3466 17.3817 2.23993 17.6377 2.23993C17.8937 2.23993 18.2244 2.35726 18.6297 2.59193C19.0351 2.80526 19.3231 2.91193 19.4937 2.91193H19.5577L20.7097 1.75993C20.7311 1.73859 20.7844 1.72793 20.8697 1.72793C21.4884 1.72793 21.7977 1.8986 21.7977 2.23993V18.0159C21.7977 19.3386 22.5551 19.9999 24.0697 19.9999C24.8591 19.9999 25.4137 19.7546 25.7337 19.2639C26.0751 18.7519 26.3417 18.1653 26.5337 17.5039V15.2639V13.0239C26.4911 11.8506 26.4591 10.8266 26.4377 9.95193C26.4164 9.05593 26.3951 8.30926 26.3737 7.71193C26.3524 7.5626 26.3417 7.25326 26.3417 6.78393C26.3417 6.3146 26.3417 5.68526 26.3417 4.89593C26.3417 4.5546 26.3204 4.2026 26.2777 3.83993C26.2564 3.45593 26.2671 3.09326 26.3097 2.75193C26.3737 2.4106 26.4911 2.11193 26.6617 1.85593C26.8324 1.57859 27.1204 1.37593 27.5257 1.24793ZM33.0117 1.75993H37.1397C37.3317 1.75993 37.3744 1.83459 37.2677 1.98393C37.1824 2.13326 37.1397 2.25059 37.1397 2.33593V2.39993L40.3077 8.86393V7.55193C40.7984 6.74126 41.2677 5.94126 41.7157 5.15193C42.1851 4.36259 42.6544 3.56259 43.1237 2.75193C43.3584 2.3466 43.4757 2.1226 43.4757 2.07993C43.4757 1.86659 43.3584 1.75993 43.1237 1.75993H48.1157C48.3504 1.75993 48.4677 1.91993 48.4677 2.23993C48.4677 2.32526 48.4571 2.3786 48.4357 2.39993L42.8037 13.8559C42.7397 13.9626 42.6331 14.0159 42.4837 14.0159C42.3344 14.0159 42.1744 13.9839 42.0037 13.9199C41.8544 13.8346 41.7797 13.9199 41.7797 14.1759C41.7797 14.3893 41.7904 14.5066 41.8117 14.5279C41.9824 16.0853 42.1211 17.4506 42.2277 18.6239C42.3344 19.7759 42.4091 20.7359 42.4517 21.5039C42.4731 21.5893 42.4837 21.9733 42.4837 22.6559C42.4837 22.8479 42.4837 23.0399 42.4837 23.2319C42.4837 23.4239 42.4731 23.6159 42.4517 23.8079C42.1957 24.1279 41.7157 24.2879 41.0117 24.2879C40.5424 24.2879 40.1157 24.2666 39.7317 24.2239C39.3477 24.2026 38.9851 24.1706 38.6437 24.1279C38.2384 24.0639 37.9717 23.7439 37.8437 23.1679C37.7157 22.5706 37.6517 21.9839 37.6517 21.4079V20.1599C37.7371 19.0506 37.8011 18.0799 37.8437 17.2479C37.8864 16.4159 37.9291 15.7333 37.9717 15.1999C37.9931 15.1573 38.0037 15.0613 38.0037 14.9119C38.0037 14.6133 37.8864 14.2826 37.6517 13.9199C37.4171 13.5573 37.2464 13.2586 37.1397 13.0239C36.9904 12.7466 36.8624 12.5013 36.7557 12.2879C36.6491 12.0533 36.5637 11.8613 36.4997 11.7119C36.1584 10.8799 35.6784 9.72793 35.0597 8.25593C34.4411 6.78393 33.7051 5.0026 32.8517 2.91193C32.7451 2.59193 32.6917 2.33593 32.6917 2.14393C32.6917 1.86659 32.7984 1.73859 33.0117 1.75993ZM64.1675 0.415928L66.1515 0.0959282C66.4715 0.031929 66.8022 0.031929 67.1435 0.0959282C67.2502 0.0959282 67.3035 0.149261 67.3035 0.255928V1.91993C67.3035 2.00526 67.3675 2.07993 67.4955 2.14393C67.6235 2.20793 67.7622 2.26126 67.9115 2.30393C68.0822 2.32526 68.2422 2.3466 68.3915 2.36793C68.5408 2.38926 68.6262 2.39993 68.6475 2.39993C69.3728 2.54926 70.0875 2.82659 70.7915 3.23193C71.6022 3.72259 72.0395 4.1706 72.1035 4.57593C72.1248 4.59726 72.0715 4.69326 71.9435 4.86393C71.8368 5.01326 71.7088 5.1946 71.5595 5.40793C71.4315 5.59993 71.3035 5.78126 71.1755 5.95193C71.0475 6.1226 70.9728 6.2186 70.9515 6.23993C70.8235 6.43193 70.6955 6.5386 70.5675 6.55993C70.4608 6.58126 70.2902 6.59193 70.0555 6.59193C69.5222 6.59193 69.0528 6.51726 68.6475 6.36793C68.2422 6.19726 67.9008 6.0906 67.6235 6.04793H66.5675H65.3195C64.5302 6.11193 64.1355 6.54926 64.1355 7.35993C64.1355 7.7866 64.3168 8.21326 64.6795 8.63993C65.0422 9.04526 65.4688 9.42926 65.9595 9.79193C66.4502 10.1333 66.9302 10.4426 67.3995 10.7199C67.8688 10.9973 68.2208 11.2106 68.4555 11.3599C69.7782 12.2559 70.6635 13.1413 71.1115 14.0159C71.7942 15.2746 72.1355 16.4799 72.1355 17.6319C72.1355 20.2133 70.8022 22.0479 68.1355 23.1359C67.7515 23.2853 67.3782 23.4026 67.0155 23.4879C66.6528 23.5733 66.4715 23.7119 66.4715 23.9039V23.9679L67.4635 25.2799C67.4848 25.3013 67.4955 25.3226 67.4955 25.3439C67.4955 25.5146 67.4102 25.6853 67.2395 25.8559C67.0688 26.0479 66.8662 26.2293 66.6315 26.3999C66.4182 26.5706 66.1942 26.7199 65.9595 26.8479C65.7462 26.9759 65.5862 27.0613 65.4795 27.1039C65.4155 26.9333 65.2555 26.7306 64.9995 26.4959C64.7648 26.2826 64.5515 26.1119 64.3595 25.9839C64.1888 25.8559 64.0928 25.7813 64.0715 25.7599V23.8079L58.6955 23.2959L59.8475 19.3279C59.8475 19.3066 59.9755 19.2959 60.2315 19.2959C60.6582 19.2959 61.0635 19.3493 61.4475 19.4559C61.8315 19.5626 62.1302 19.6373 62.3435 19.6799C62.6422 19.7226 62.9622 19.7653 63.3035 19.8079C63.6448 19.8293 63.9862 19.8399 64.3275 19.8399C65.2662 19.8399 66.0235 19.6479 66.5995 19.2639C67.1968 18.8799 67.4955 18.3253 67.4955 17.5999C67.4955 17.1306 67.3035 16.6719 66.9195 16.2239C66.5568 15.7546 66.1302 15.3279 65.6395 14.9439C65.1488 14.5599 64.6475 14.2186 64.1355 13.9199C63.6235 13.5999 63.2395 13.3546 62.9835 13.1839C62.6848 12.9706 62.4288 12.7893 62.2155 12.6399C62.0022 12.4693 61.8208 12.3199 61.6715 12.1919C60.4768 11.1679 59.7515 10.1226 59.4955 9.05593V7.71193C59.4955 4.91726 60.6582 3.19993 62.9835 2.55993C63.6448 2.36793 63.9755 2.26126 63.9755 2.23993V0.575928L63.6555 0.415928C63.6342 0.394595 63.6448 0.362595 63.6875 0.319929C63.7515 0.277262 63.7942 0.255928 63.8155 0.255928C63.9435 0.255928 64.0608 0.309261 64.1675 0.415928ZM75.2337 2.39993L80.5457 1.75993C82.4871 1.52526 84.0444 1.87726 85.2177 2.81593C86.3911 3.73326 87.1591 5.08793 87.5217 6.87993C87.4791 7.6266 87.4471 8.37326 87.4257 9.11993C87.4044 9.8666 87.4364 10.6133 87.5217 11.3599C87.5857 11.9146 87.6391 12.4053 87.6817 12.8319C87.7457 13.2373 87.7991 13.6106 87.8417 13.9519C87.9057 14.2719 87.9484 14.5919 87.9697 14.9119C88.0124 15.2106 88.0337 15.5306 88.0337 15.8719C88.0337 17.0666 87.9164 18.1119 87.6817 19.0079C86.9564 21.7386 85.1324 23.3386 82.2097 23.8079C81.2711 23.8719 80.3324 23.9359 79.3937 23.9999C78.4551 24.0426 77.5164 24.0853 76.5777 24.1279H75.5537H74.9137L74.5937 23.8079V2.07993L75.2337 2.39993ZM81.5377 4.57593C81.3671 4.6826 81.1431 4.82126 80.8657 4.99193C80.5884 5.14126 80.3111 5.31193 80.0337 5.50393C79.7564 5.6746 79.5217 5.84526 79.3297 6.01593C79.1377 6.16526 79.0417 6.29326 79.0417 6.39993V21.5039L80.7057 20.1599C82.0497 19.9893 82.7217 19.2213 82.7217 17.8559C82.7217 17.3226 82.6364 16.8213 82.4657 16.3519C82.2951 15.8613 82.2097 15.2746 82.2097 14.5919V14.5279L83.3617 10.8799C83.3831 10.8373 83.3937 10.5386 83.3937 9.98393C83.3937 9.04526 83.3297 8.2346 83.2017 7.55193C83.1164 7.0826 83.0097 6.6986 82.8817 6.39993C82.7537 6.10126 82.5831 5.7706 82.3697 5.40793C82.1351 4.95993 81.8577 4.6826 81.5377 4.57593ZM100.932 1.24793C101.167 1.1626 101.519 1.20526 101.988 1.37593C102.479 1.52526 102.959 1.65326 103.428 1.75993C103.983 1.90926 104.281 2.22926 104.324 2.71993C104.388 3.2106 104.42 3.87193 104.42 4.70393V6.39993C104.377 8.46926 104.335 10.5493 104.292 12.6399C104.249 14.7093 104.175 16.7786 104.068 18.8479C103.983 20.1493 103.62 21.2373 102.98 22.1119C102.34 22.9653 101.487 23.5839 100.42 23.9679C99.5027 24.2879 98.5107 24.4479 97.444 24.4479C94.4573 24.4479 92.356 23.1253 91.14 20.4799C90.82 19.7546 90.66 18.8159 90.66 17.6639V2.55993C90.66 2.3466 90.788 2.23993 91.044 2.23993C91.3 2.23993 91.6307 2.35726 92.036 2.59193C92.4413 2.80526 92.7293 2.91193 92.9 2.91193H92.964L94.116 1.75993C94.1373 1.73859 94.1907 1.72793 94.276 1.72793C94.8947 1.72793 95.204 1.8986 95.204 2.23993V18.0159C95.204 19.3386 95.9613 19.9999 97.476 19.9999C98.2653 19.9999 98.82 19.7546 99.14 19.2639C99.4813 18.7519 99.748 18.1653 99.94 17.5039V15.2639V13.0239C99.8973 11.8506 99.8653 10.8266 99.844 9.95193C99.8227 9.05593 99.8013 8.30926 99.78 7.71193C99.7587 7.5626 99.748 7.25326 99.748 6.78393C99.748 6.3146 99.748 5.68526 99.748 4.89593C99.748 4.5546 99.7267 4.2026 99.684 3.83993C99.6627 3.45593 99.6733 3.09326 99.716 2.75193C99.78 2.4106 99.8973 2.11193 100.068 1.85593C100.239 1.57859 100.527 1.37593 100.932 1.24793ZM117.522 1.40793C117.735 1.36526 118.034 1.36526 118.418 1.40793C118.823 1.42926 119.218 1.49326 119.602 1.59993C119.986 1.70659 120.317 1.86659 120.594 2.07993C120.871 2.29326 121.01 2.5706 121.01 2.91193V5.82393V8.70393C120.967 11.1999 120.903 13.6959 120.818 16.1919C120.754 18.6879 120.679 21.1733 120.594 23.6479V23.1359L117.842 24.1279H117.554C117.063 24.1279 116.722 23.9679 116.53 23.6479L110.482 13.4079L111.538 22.8159C111.538 22.8373 111.538 22.8799 111.538 22.9439C111.559 23.0079 111.57 23.0826 111.57 23.1679C111.57 23.8079 111.453 24.1279 111.218 24.1279H107.73C107.474 24.1279 107.186 23.8826 106.866 23.3919C106.567 22.8799 106.418 22.3999 106.418 21.9519V21.6639C106.525 18.5493 106.631 15.4239 106.738 12.2879C106.845 9.15193 106.951 6.0266 107.058 2.91193C107.101 2.29326 107.218 1.9626 107.41 1.91993C108.221 1.79193 109.213 1.72793 110.386 1.72793C110.578 1.72793 110.77 1.72793 110.962 1.72793C111.154 1.72793 111.346 1.73859 111.538 1.75993C111.709 2.03726 111.879 2.36793 112.05 2.75193C112.925 4.86393 113.693 6.70926 114.354 8.28793C115.015 9.84526 115.57 11.1466 116.018 12.1919C116.082 12.3199 116.167 12.4373 116.274 12.5439V2.23993C116.274 1.85593 116.69 1.5786 117.522 1.40793ZM133.772 0.415928L137.58 1.75993C137.601 1.75993 137.655 1.86659 137.74 2.07993C137.847 2.27193 137.943 2.49593 138.028 2.75193C138.135 3.00793 138.22 3.26393 138.284 3.51993C138.369 3.77593 138.412 3.95726 138.412 4.06393C138.412 4.1706 138.359 4.27726 138.252 4.38393L132.428 9.05593C132.087 9.33326 131.916 9.5466 131.916 9.69593C131.916 9.8026 131.927 9.8666 131.948 9.88793L138.924 22.9759V23.8079L137.58 25.1199H137.26C136.983 25.1199 136.641 25.0026 136.236 24.7679C135.831 24.5546 135.5 24.3946 135.244 24.2879C134.903 24.2453 134.615 24.0746 134.38 23.7759C134.145 23.4559 133.889 22.9653 133.612 22.3039C133.015 20.8746 132.417 19.4453 131.82 18.0159C131.244 16.5866 130.679 15.1466 130.124 13.6959H129.964L128.46 16.5119L128.108 23.6479L127.948 23.8079L127.788 23.4879C127.297 23.6373 126.775 23.7866 126.22 23.9359C125.687 24.0639 125.164 24.1279 124.652 24.1279C123.991 24.1279 123.66 23.8613 123.66 23.3279V2.55993C123.66 2.19726 123.895 1.94126 124.364 1.79193C124.833 1.6426 125.281 1.56793 125.708 1.56793C126.775 1.56793 127.564 1.78126 128.076 2.20793C128.609 2.61326 128.897 3.1786 128.94 3.90393L129.612 10.0479L132.588 2.55993C132.844 2.21859 133.047 1.86659 133.196 1.50393C133.345 1.14126 133.537 0.778595 133.772 0.415928Z" fill="#0D1925"/>
</svg>
