<svg width="197" height="25" viewBox="0 0 197 25" fill="none" xmlns="http://www.w3.org/2000/svg">
<path d="M0.991988 0.672089C2.14399 0.629423 3.29599 0.629423 4.44799 0.672089C5.55732 0.714756 6.66666 0.768089 7.77599 0.832088C8.88532 0.874756 9.99466 0.938756 11.104 1.02409C11.6587 1.13076 11.936 1.64276 11.936 2.56009C11.936 2.85876 11.904 3.24276 11.84 3.71209C11.776 4.18142 11.6907 4.64009 11.584 5.08809C11.4987 5.51476 11.4027 5.88809 11.296 6.20809C11.2107 6.50676 11.1253 6.65609 11.04 6.65609H10.944L3.10399 4.89609L4.44799 9.31209L4.63999 9.63209C5.30132 9.65342 5.96266 9.68542 6.62399 9.72809C7.28532 9.74942 7.94666 9.77076 8.60799 9.79209C9.14132 9.83476 9.64266 9.89876 10.112 9.98409C10.3467 10.1548 10.464 10.4214 10.464 10.7841C10.464 11.1254 10.464 11.4348 10.464 11.7121C10.464 12.4801 10.4533 12.8961 10.432 12.9601C10.4107 13.2588 10.3467 13.4614 10.24 13.5681C10.1547 13.6748 10.0373 13.7494 9.88799 13.7921C9.75999 13.8134 9.59999 13.8134 9.40799 13.7921C9.21599 13.7708 9.00266 13.7708 8.76799 13.7921C8.21332 13.8134 7.67999 13.8454 7.16799 13.8881C6.67732 13.9094 6.21866 13.9308 5.79199 13.9521C5.21599 13.9734 4.83199 14.0268 4.63999 14.1121C3.85066 14.4321 3.45599 14.9228 3.45599 15.5841V15.7761L4.28799 21.5681V23.0721L4.12799 23.2321C3.63732 23.1894 3.13599 23.1894 2.62399 23.2321C2.36799 23.2748 2.14399 23.3174 1.95199 23.3601C1.75999 23.3814 1.59999 23.3921 1.47199 23.3921H0.767988H0.319988L-1.16825e-05 23.0721V1.34409C-1.16825e-05 1.10942 0.330655 0.885422 0.991988 0.672089ZM17.7737 0.832088C18.7764 0.789422 19.7791 0.789422 20.7817 0.832088C21.9551 1.10942 22.9151 1.49342 23.6617 1.98409C24.4297 2.47476 25.0164 3.25342 25.4217 4.32009C25.8271 5.40809 26.0404 6.24009 26.0617 6.81609C26.0831 7.56276 26.0937 8.30942 26.0937 9.05609C26.0937 9.80276 26.0937 10.5494 26.0937 11.2961C26.0937 12.6188 26.0937 13.6534 26.0937 14.4001C26.0937 15.1468 26.0831 15.6054 26.0617 15.7761C26.0617 16.1174 26.0404 16.4694 25.9977 16.8321C25.9764 17.1948 25.9444 17.5574 25.9017 17.9201C25.3897 21.7814 23.1817 23.7121 19.2777 23.7121C18.1257 23.7121 17.1871 23.5521 16.4617 23.2321C13.9231 22.1014 12.6537 20.2774 12.6537 17.7601V6.65609C12.6537 5.63209 12.9204 4.69342 13.4537 3.84009C14.5417 2.13342 15.9817 1.13076 17.7737 0.832088ZM18.6057 4.99209C18.2857 5.05609 17.9977 5.28009 17.7417 5.66409C17.4857 6.02676 17.2617 6.46409 17.0697 6.97609C16.8777 7.46676 16.7284 7.98942 16.6217 8.54409C16.5151 9.07742 16.4617 9.54676 16.4617 9.95209V10.1441L17.2937 17.6001C17.4217 18.8374 18.0831 19.4561 19.2777 19.4561C20.4084 19.4561 21.0697 18.8908 21.2617 17.7601C21.3044 17.4614 21.3364 17.2054 21.3577 16.9921C21.4004 16.7788 21.4217 16.5974 21.4217 16.4481V7.96809C21.4217 5.79209 20.4831 4.80009 18.6057 4.99209ZM27.2837 1.18409L27.6037 0.832088C28.7984 0.789422 29.9077 0.853422 30.9317 1.02409C31.2517 1.04542 31.4117 1.20542 31.4117 1.50409C31.4117 1.90942 31.2731 2.32542 30.9957 2.75209C30.7184 3.15742 30.5797 3.49876 30.5797 3.77609V4.16009L31.7317 19.1041L32.7557 20.0961H33.0117H33.3957C34.4411 19.8614 35.2944 19.6908 35.9557 19.5841C36.6384 19.4561 37.2677 19.3921 37.8437 19.3921C38.4411 19.3921 39.0064 19.5734 39.5397 19.9361C38.8357 21.5361 38.5051 22.9014 38.5477 24.0321C38.5264 24.1601 38.3984 24.2241 38.1637 24.2241C38.0144 24.2241 37.9184 24.2134 37.8757 24.1921L27.6037 23.3921L27.2837 23.0721V1.18409ZM39.2537 1.18409L39.5737 0.832088C40.7684 0.789422 41.8777 0.853422 42.9017 1.02409C43.2217 1.04542 43.3817 1.20542 43.3817 1.50409C43.3817 1.90942 43.2431 2.32542 42.9657 2.75209C42.6884 3.15742 42.5497 3.49876 42.5497 3.77609V4.16009L43.7017 19.1041L44.7257 20.0961H44.9817H45.3657C46.4111 19.8614 47.2644 19.6908 47.9257 19.5841C48.6084 19.4561 49.2377 19.3921 49.8137 19.3921C50.4111 19.3921 50.9764 19.5734 51.5097 19.9361C50.8057 21.5361 50.4751 22.9014 50.5177 24.0321C50.4964 24.1601 50.3684 24.2241 50.1337 24.2241C49.9844 24.2241 49.8884 24.2134 49.8457 24.1921L39.5737 23.3921L39.2537 23.0721V1.18409ZM56.1837 0.832088C57.1864 0.789422 58.1891 0.789422 59.1917 0.832088C60.3651 1.10942 61.3251 1.49342 62.0717 1.98409C62.8397 2.47476 63.4264 3.25342 63.8317 4.32009C64.2371 5.40809 64.4504 6.24009 64.4717 6.81609C64.4931 7.56276 64.5037 8.30942 64.5037 9.05609C64.5037 9.80276 64.5037 10.5494 64.5037 11.2961C64.5037 12.6188 64.5037 13.6534 64.5037 14.4001C64.5037 15.1468 64.4931 15.6054 64.4717 15.7761C64.4717 16.1174 64.4504 16.4694 64.4077 16.8321C64.3864 17.1948 64.3544 17.5574 64.3117 17.9201C63.7997 21.7814 61.5917 23.7121 57.6877 23.7121C56.5357 23.7121 55.5971 23.5521 54.8717 23.2321C52.3331 22.1014 51.0637 20.2774 51.0637 17.7601V6.65609C51.0637 5.63209 51.3304 4.69342 51.8637 3.84009C52.9517 2.13342 54.3917 1.13076 56.1837 0.832088ZM57.0157 4.99209C56.6957 5.05609 56.4077 5.28009 56.1517 5.66409C55.8957 6.02676 55.6717 6.46409 55.4797 6.97609C55.2877 7.46676 55.1384 7.98942 55.0317 8.54409C54.9251 9.07742 54.8717 9.54676 54.8717 9.95209V10.1441L55.7037 17.6001C55.8317 18.8374 56.4931 19.4561 57.6877 19.4561C58.8184 19.4561 59.4797 18.8908 59.6717 17.7601C59.7144 17.4614 59.7464 17.2054 59.7677 16.9921C59.8104 16.7788 59.8317 16.5974 59.8317 16.4481V7.96809C59.8317 5.79209 58.8931 4.80009 57.0157 4.99209ZM66.1737 8.96454e-05H66.5257L68.8297 1.18409C68.9364 1.22676 69.0111 1.34409 69.0537 1.53609C69.1177 1.70676 69.1711 1.92009 69.2137 2.17609C69.2564 2.41076 69.2884 2.64542 69.3097 2.88009C69.3311 3.11475 69.3417 3.31742 69.3417 3.48809L72.3177 16.0961C72.4457 16.0534 72.5631 15.8401 72.6697 15.4561L74.3017 8.12809C74.3657 7.91476 74.7071 7.86142 75.3257 7.96809C74.9844 6.77342 74.5897 5.63209 74.1417 4.54409C73.7151 3.45609 73.2244 2.44276 72.6697 1.50409C72.7764 1.63209 72.9897 1.69609 73.3097 1.69609C73.9711 1.69609 74.6111 1.60009 75.2297 1.40809C75.8484 1.19476 76.3177 1.06676 76.6377 1.02409C76.6591 1.00275 76.7444 0.992088 76.8937 0.992088C77.2351 0.992088 77.5337 1.16276 77.7897 1.50409C78.1737 3.50942 78.5577 5.52542 78.9417 7.55209C79.3257 9.57876 79.7204 11.6054 80.1257 13.6321C80.2111 14.1654 80.3711 14.5494 80.6057 14.7841C80.6271 14.7628 80.6377 14.7308 80.6377 14.6881C80.6377 14.0481 80.5311 13.4508 80.3177 12.8961C80.1257 12.3414 80.0084 11.9148 79.9657 11.6161C79.9444 11.5948 79.9337 11.4774 79.9337 11.2641C79.9337 11.0934 79.9444 10.9974 79.9657 10.9761L83.2617 1.82409C83.2831 1.80276 83.2937 1.71742 83.2937 1.56809C83.2937 1.26942 83.1764 1.14142 82.9417 1.18409H83.9337C84.7231 1.12009 85.3631 1.07742 85.8537 1.05609C86.3444 1.01342 86.8031 0.992088 87.2297 0.992088C87.6991 0.992088 87.9337 1.10942 87.9337 1.34409C87.9337 1.55742 87.8164 1.78142 87.5817 2.01609L83.1017 22.7521C83.0164 23.0721 82.8564 23.3494 82.6217 23.5841C82.3871 23.8401 82.1524 24.0428 81.9177 24.1921C81.6831 24.3628 81.4911 24.4908 81.3417 24.5761C81.2137 24.6614 81.1924 24.7041 81.2777 24.7041H81.1177C80.9897 24.7041 80.8191 24.6508 80.6057 24.5441C80.3924 24.4588 80.1684 24.3521 79.9337 24.2241C79.7204 24.0961 79.5071 23.9681 79.2937 23.8401C79.0804 23.7121 78.9097 23.6161 78.7817 23.5521C78.3124 23.3388 77.7044 23.1254 76.9577 22.9121L76.7977 22.4001L76.3177 16.6081C76.0831 17.5894 75.8377 18.5601 75.5817 19.5201C75.3257 20.4801 75.0697 21.4401 74.8137 22.4001C74.7284 22.7628 74.6217 22.9868 74.4937 23.0721V22.2401H74.1417C73.8217 22.2401 73.4804 22.3041 73.1177 22.4321C72.7764 22.5388 72.4244 22.6668 72.0617 22.8161C71.6991 22.9654 71.3471 23.1041 71.0057 23.2321C70.6857 23.3388 70.3764 23.3921 70.0777 23.3921C69.3311 23.3921 68.8617 22.9548 68.6697 22.0801L64.5417 2.01609V1.76009C64.5417 1.05609 65.0857 0.469422 66.1737 8.96454e-05ZM95.3225 1.34409L95.6745 1.02409H109.946C110.053 1.02409 110.16 1.10942 110.266 1.28009C110.394 1.42942 110.501 1.61076 110.586 1.82409C110.693 2.01609 110.778 2.20809 110.842 2.40009C110.906 2.59209 110.938 2.73076 110.938 2.81609C110.938 2.85876 110.906 2.96542 110.842 3.13609C110.778 3.28542 110.746 3.48809 110.746 3.74409C110.746 3.85076 110.81 3.93609 110.938 4.00009C110.746 4.46942 110.576 4.74675 110.426 4.83209V4.06409L105.626 5.31209V5.50409C106.074 5.48276 106.298 5.67476 106.298 6.08009C106.298 6.29342 106.288 6.43209 106.266 6.49609L105.114 22.4001L104.954 23.0721C104.57 23.0294 104.186 23.0294 103.802 23.0721C103.397 23.1574 103.045 23.2321 102.746 23.2961C102.448 23.3388 102.192 23.3708 101.978 23.3921H101.53C101.296 23.3921 101.05 23.3174 100.794 23.1681C100.538 22.9974 100.293 22.7734 100.058 22.4961C99.8452 22.1974 99.6638 21.8668 99.5145 21.5041C99.3652 21.1201 99.2905 20.7041 99.2905 20.2561C99.2905 19.7868 99.3012 19.5094 99.3225 19.4241L100.474 6.14409V5.88809C100.474 5.50409 100.421 5.31209 100.314 5.31209H95.3225L94.8425 5.82409C94.8638 5.80276 94.8638 5.73876 94.8425 5.63209C94.8212 5.50409 94.8105 5.42942 94.8105 5.40809C94.8105 5.17342 94.8212 5.03476 94.8425 4.99209C95.0985 2.62409 95.2585 1.40809 95.3225 1.34409ZM111.24 8.96454e-05H111.592L113.896 1.18409C114.003 1.22676 114.077 1.34409 114.12 1.53609C114.184 1.70676 114.237 1.92009 114.28 2.17609C114.323 2.41076 114.355 2.64542 114.376 2.88009C114.397 3.11475 114.408 3.31742 114.408 3.48809L117.384 16.0961C117.512 16.0534 117.629 15.8401 117.736 15.4561L119.368 8.12809C119.432 7.91476 119.773 7.86142 120.392 7.96809C120.051 6.77342 119.656 5.63209 119.208 4.54409C118.781 3.45609 118.291 2.44276 117.736 1.50409C117.843 1.63209 118.056 1.69609 118.376 1.69609C119.037 1.69609 119.677 1.60009 120.296 1.40809C120.915 1.19476 121.384 1.06676 121.704 1.02409C121.725 1.00275 121.811 0.992088 121.96 0.992088C122.301 0.992088 122.6 1.16276 122.856 1.50409C123.24 3.50942 123.624 5.52542 124.008 7.55209C124.392 9.57876 124.787 11.6054 125.192 13.6321C125.277 14.1654 125.437 14.5494 125.672 14.7841C125.693 14.7628 125.704 14.7308 125.704 14.6881C125.704 14.0481 125.597 13.4508 125.384 12.8961C125.192 12.3414 125.075 11.9148 125.032 11.6161C125.011 11.5948 125 11.4774 125 11.2641C125 11.0934 125.011 10.9974 125.032 10.9761L128.328 1.82409C128.349 1.80276 128.36 1.71742 128.36 1.56809C128.36 1.26942 128.243 1.14142 128.008 1.18409H129C129.789 1.12009 130.429 1.07742 130.92 1.05609C131.411 1.01342 131.869 0.992088 132.296 0.992088C132.765 0.992088 133 1.10942 133 1.34409C133 1.55742 132.883 1.78142 132.648 2.01609L128.168 22.7521C128.083 23.0721 127.923 23.3494 127.688 23.5841C127.453 23.8401 127.219 24.0428 126.984 24.1921C126.749 24.3628 126.557 24.4908 126.408 24.5761C126.28 24.6614 126.259 24.7041 126.344 24.7041H126.184C126.056 24.7041 125.885 24.6508 125.672 24.5441C125.459 24.4588 125.235 24.3521 125 24.2241C124.787 24.0961 124.573 23.9681 124.36 23.8401C124.147 23.7121 123.976 23.6161 123.848 23.5521C123.379 23.3388 122.771 23.1254 122.024 22.9121L121.864 22.4001L121.384 16.6081C121.149 17.5894 120.904 18.5601 120.648 19.5201C120.392 20.4801 120.136 21.4401 119.88 22.4001C119.795 22.7628 119.688 22.9868 119.56 23.0721V22.2401H119.208C118.888 22.2401 118.547 22.3041 118.184 22.4321C117.843 22.5388 117.491 22.6668 117.128 22.8161C116.765 22.9654 116.413 23.1041 116.072 23.2321C115.752 23.3388 115.443 23.3921 115.144 23.3921C114.397 23.3921 113.928 22.9548 113.736 22.0801L109.608 2.01609V1.76009C109.608 1.05609 110.152 0.469422 111.24 8.96454e-05ZM133.259 2.17609L136.683 1.02409C137.238 0.853422 137.515 1.01342 137.515 1.50409C137.515 1.61076 137.483 1.78142 137.419 2.01609C137.376 2.25076 137.312 2.50676 137.227 2.78409C137.163 3.04009 137.099 3.31742 137.035 3.61609C136.992 3.91476 136.971 4.18142 136.971 4.41609C136.971 4.88542 136.971 5.26942 136.971 5.56809C136.971 5.84542 136.982 6.03742 137.003 6.14409C137.323 12.1601 137.547 16.6401 137.675 19.5841V21.3441V23.0721C137.099 23.7121 136.683 24.0321 136.427 24.0321C136.363 24.0321 136.16 24.0001 135.819 23.9361C135.478 23.8934 135.115 23.8294 134.731 23.7441C134.347 23.6588 134.006 23.5521 133.707 23.4241C133.408 23.3174 133.259 23.2001 133.259 23.0721V2.33609H133.035C133.014 2.33609 133.024 2.24009 133.067 2.04809C133.131 1.83475 133.195 1.65342 133.259 1.50409V2.17609ZM137.889 1.34409L138.241 1.02409H152.513C152.619 1.02409 152.726 1.10942 152.833 1.28009C152.961 1.42942 153.067 1.61076 153.153 1.82409C153.259 2.01609 153.345 2.20809 153.409 2.40009C153.473 2.59209 153.505 2.73076 153.505 2.81609C153.505 2.85876 153.473 2.96542 153.409 3.13609C153.345 3.28542 153.313 3.48809 153.313 3.74409C153.313 3.85076 153.377 3.93609 153.505 4.00009C153.313 4.46942 153.142 4.74675 152.993 4.83209V4.06409L148.193 5.31209V5.50409C148.641 5.48276 148.865 5.67476 148.865 6.08009C148.865 6.29342 148.854 6.43209 148.833 6.49609L147.681 22.4001L147.521 23.0721C147.137 23.0294 146.753 23.0294 146.369 23.0721C145.963 23.1574 145.611 23.2321 145.313 23.2961C145.014 23.3388 144.758 23.3708 144.545 23.3921H144.097C143.862 23.3921 143.617 23.3174 143.361 23.1681C143.105 22.9974 142.859 22.7734 142.625 22.4961C142.411 22.1974 142.23 21.8668 142.081 21.5041C141.931 21.1201 141.857 20.7041 141.857 20.2561C141.857 19.7868 141.867 19.5094 141.889 19.4241L143.041 6.14409V5.88809C143.041 5.50409 142.987 5.31209 142.881 5.31209H137.889L137.409 5.82409C137.43 5.80276 137.43 5.73876 137.409 5.63209C137.387 5.50409 137.377 5.42942 137.377 5.40809C137.377 5.17342 137.387 5.03476 137.409 4.99209C137.665 2.62409 137.825 1.40809 137.889 1.34409ZM152.046 1.34409L152.398 1.02409H166.67C166.777 1.02409 166.884 1.10942 166.99 1.28009C167.118 1.42942 167.225 1.61076 167.31 1.82409C167.417 2.01609 167.502 2.20809 167.566 2.40009C167.63 2.59209 167.662 2.73076 167.662 2.81609C167.662 2.85876 167.63 2.96542 167.566 3.13609C167.502 3.28542 167.47 3.48809 167.47 3.74409C167.47 3.85076 167.534 3.93609 167.662 4.00009C167.47 4.46942 167.3 4.74675 167.15 4.83209V4.06409L162.35 5.31209V5.50409C162.798 5.48276 163.022 5.67476 163.022 6.08009C163.022 6.29342 163.012 6.43209 162.99 6.49609L161.838 22.4001L161.678 23.0721C161.294 23.0294 160.91 23.0294 160.526 23.0721C160.121 23.1574 159.769 23.2321 159.47 23.2961C159.172 23.3388 158.916 23.3708 158.702 23.3921H158.254C158.02 23.3921 157.774 23.3174 157.518 23.1681C157.262 22.9974 157.017 22.7734 156.782 22.4961C156.569 22.1974 156.388 21.8668 156.238 21.5041C156.089 21.1201 156.014 20.7041 156.014 20.2561C156.014 19.7868 156.025 19.5094 156.046 19.4241L157.198 6.14409V5.88809C157.198 5.50409 157.145 5.31209 157.038 5.31209H152.046L151.566 5.82409C151.588 5.80276 151.588 5.73876 151.566 5.63209C151.545 5.50409 151.534 5.42942 151.534 5.40809C151.534 5.17342 151.545 5.03476 151.566 4.99209C151.822 2.62409 151.982 1.40809 152.046 1.34409ZM169.468 2.17609L178.268 1.02409H179.42C179.377 1.02409 179.334 1.05609 179.292 1.12009C179.27 1.16276 179.26 1.20542 179.26 1.24809V1.34409C179.366 2.06942 179.441 2.62409 179.484 3.00809C179.548 3.37076 179.58 3.78676 179.58 4.25609C179.58 4.21342 179.569 4.25609 179.548 4.38409C179.526 4.49076 179.494 4.62942 179.452 4.80009C179.43 4.97076 179.409 5.14142 179.388 5.31209C179.366 5.48276 179.356 5.61076 179.356 5.69609C179.206 5.69609 179.046 5.69609 178.876 5.69609C178.726 5.69609 178.577 5.68542 178.428 5.66409C177.126 5.55742 175.985 5.46142 175.004 5.37609C174.044 5.26942 173.244 5.19476 172.604 5.15209H172.508C172.422 5.15209 172.284 5.23742 172.092 5.40809C171.9 5.55742 171.708 5.73876 171.516 5.95209C171.324 6.16542 171.153 6.37876 171.004 6.59209C170.854 6.80542 170.78 6.96542 170.78 7.07209C170.78 7.07209 170.812 7.16809 170.876 7.36009C170.961 7.53076 171.057 7.72276 171.164 7.93609C171.292 8.14942 171.42 8.35209 171.548 8.54409C171.697 8.71476 171.825 8.80009 171.932 8.80009L177.436 9.63209H178.78C178.801 9.63209 178.801 9.66409 178.78 9.72809C178.758 9.77076 178.748 9.79209 178.748 9.79209C178.62 10.3041 178.502 10.8268 178.396 11.3601C178.31 11.8721 178.172 12.3308 177.98 12.7361C177.809 13.1414 177.574 13.4721 177.276 13.7281C176.977 13.9841 176.572 14.1121 176.06 14.1121H175.42C175.014 14.0694 174.662 14.0374 174.364 14.0161C174.065 13.9948 173.809 13.9734 173.596 13.9521C173.318 13.9734 173.041 13.9841 172.764 13.9841C172.486 13.9841 172.209 13.9841 171.932 13.9841V18.8481C172.38 18.8481 172.774 18.6561 173.116 18.2721L179.74 19.4241C179.846 19.4668 179.9 19.5734 179.9 19.7441C179.9 19.9788 179.793 20.3734 179.58 20.9281C179.686 21.1628 179.793 21.4401 179.9 21.7601C180.028 22.0801 180.092 22.3574 180.092 22.5921C180.092 22.9548 179.921 23.2108 179.58 23.3601C179.26 23.4881 178.865 23.5628 178.396 23.5841C177.926 23.6268 177.446 23.6268 176.956 23.5841C176.486 23.5628 176.092 23.5521 175.772 23.5521H172.284C169.361 23.5308 167.868 23.4774 167.804 23.3921L167.484 23.0721V1.66409C167.484 1.55742 167.59 1.50409 167.804 1.50409C168.124 1.50409 168.678 1.72809 169.468 2.17609ZM171.452 8.80009C171.473 9.05609 171.516 9.18409 171.58 9.18409C171.665 9.18409 171.729 9.14142 171.772 9.05609C171.814 8.97076 171.814 8.88542 171.772 8.80009C171.75 8.71476 171.644 8.71476 171.452 8.80009ZM181.746 1.02409H189.042C189.704 1.02409 190.482 1.18409 191.378 1.50409C194.045 2.50676 195.378 4.43742 195.378 7.29609C195.378 9.40809 194.653 11.0721 193.202 12.2881C192.882 12.5014 192.552 12.7788 192.21 13.1201C191.89 13.4401 191.666 13.6108 191.538 13.6321L196.018 22.2401C196.04 22.2614 196.05 22.3681 196.05 22.5601C196.05 22.9014 195.858 23.0721 195.474 23.0721C195.389 23.0721 195.229 23.0508 194.994 23.0081C194.76 22.9441 194.461 22.9121 194.098 22.9121C193.586 22.9121 193.181 22.9974 192.882 23.1681C192.584 23.3174 192.296 23.3921 192.018 23.3921C191.528 23.3921 191.282 23.2854 191.282 23.0721V21.5681C191.282 21.5468 190.045 19.3388 187.57 14.9441C187.272 14.4961 187.048 14.2721 186.898 14.2721C186.6 14.2721 186.184 14.1654 185.65 13.9521C185.117 13.7174 184.701 13.4934 184.402 13.2801V13.7921L185.554 21.5681V22.9121C185.554 23.1468 185.394 23.2641 185.074 23.2641C184.861 23.2641 184.466 23.1468 183.89 22.9121C182.93 23.2534 182.173 23.4241 181.618 23.4241C181.618 22.9548 181.746 22.4961 182.002 22.0481C182.28 21.5788 182.418 21.2374 182.418 21.0241V20.7681L181.266 4.32009V1.34409C181.266 1.21609 181.426 1.10942 181.746 1.02409ZM186.898 4.32009C186.813 4.40542 186.706 4.51209 186.578 4.64009C186.45 4.76809 186.322 4.89609 186.194 5.02409C186.066 5.13076 185.949 5.23742 185.842 5.34409C185.757 5.42942 185.714 5.48276 185.714 5.50409V9.79209C185.714 10.1121 185.821 10.3041 186.034 10.3681C186.269 10.4321 186.546 10.4321 186.866 10.3681C187.186 10.3041 187.528 10.2081 187.89 10.0801C188.253 9.95209 188.584 9.85609 188.882 9.79209C189.885 9.55742 190.386 8.81076 190.386 7.55209C190.386 7.21076 190.28 6.84809 190.066 6.46409C189.853 6.05876 189.576 5.68542 189.234 5.34409C188.893 5.00276 188.509 4.73609 188.082 4.54409C187.677 4.33076 187.282 4.25609 186.898 4.32009Z" fill="#0D1925" fill-opacity="0.7"/>
</svg>
