<svg width="161" height="24" viewBox="0 0 161 24" fill="none" xmlns="http://www.w3.org/2000/svg">
<path d="M8.60795 0.415934C8.79995 0.373267 9.00261 0.383935 9.21595 0.447935C9.45061 0.511934 9.67461 0.607934 9.88795 0.735935C10.1013 0.842602 10.2719 0.970601 10.3999 1.11993C10.5493 1.26927 10.6239 1.42927 10.6239 1.59993C10.6239 1.8346 10.6133 1.98394 10.5919 2.04794L9.75995 18.8159C9.67461 20.8639 8.57595 22.1866 6.46395 22.7839C5.69595 22.9973 4.81061 23.1039 3.80795 23.1039C3.50928 23.1039 3.17861 23.0826 2.81595 23.0399C2.45328 23.0186 2.05861 22.9866 1.63195 22.9439C0.543946 22.8159 -5.37336e-05 22.3573 -5.37336e-05 21.5679C-5.37336e-05 21.0986 0.0426129 20.6186 0.127946 20.1279C0.191946 19.6159 0.255946 19.1253 0.319946 18.6559C0.362613 18.5279 0.56528 18.4639 0.927946 18.4639C1.43995 18.4639 1.85595 18.4959 2.17595 18.5599C2.51728 18.6239 2.83728 18.6559 3.13595 18.6559C3.58395 18.6559 4.04261 18.5493 4.51195 18.3359C4.98128 18.1013 5.21595 17.8239 5.21595 17.5039V1.40793C5.21595 1.1946 5.34395 1.0346 5.59995 0.927935C5.85595 0.799935 6.16528 0.703935 6.52795 0.639935C6.89061 0.575934 7.26395 0.533267 7.64795 0.511934C8.03195 0.490601 8.35195 0.458601 8.60795 0.415934ZM17.5294 0.223934C18.5321 0.181268 19.5348 0.181268 20.5374 0.223934C21.7108 0.501268 22.6708 0.885268 23.4174 1.37593C24.1854 1.8666 24.7721 2.64527 25.1774 3.71194C25.5828 4.79994 25.7961 5.63194 25.8174 6.20794C25.8388 6.9546 25.8494 7.70127 25.8494 8.44794C25.8494 9.1946 25.8494 9.94127 25.8494 10.6879C25.8494 12.0106 25.8494 13.0453 25.8494 13.7919C25.8494 14.5386 25.8388 14.9973 25.8174 15.1679C25.8174 15.5093 25.7961 15.8613 25.7534 16.2239C25.7321 16.5866 25.7001 16.9493 25.6574 17.3119C25.1454 21.1733 22.9374 23.1039 19.0334 23.1039C17.8814 23.1039 16.9428 22.9439 16.2174 22.6239C13.6788 21.4933 12.4094 19.6693 12.4094 17.1519V6.04794C12.4094 5.02393 12.6761 4.08527 13.2094 3.23194C14.2974 1.52527 15.7374 0.522601 17.5294 0.223934ZM18.3614 4.38393C18.0414 4.44793 17.7534 4.67193 17.4974 5.05593C17.2414 5.4186 17.0174 5.85594 16.8254 6.36794C16.6334 6.8586 16.4841 7.38127 16.3774 7.93594C16.2708 8.46927 16.2174 8.9386 16.2174 9.34394V9.53593L17.0494 16.9919C17.1774 18.2293 17.8388 18.8479 19.0334 18.8479C20.1641 18.8479 20.8254 18.2826 21.0174 17.1519C21.0601 16.8533 21.0921 16.5973 21.1134 16.3839C21.1561 16.1706 21.1774 15.9893 21.1774 15.8399V7.35993C21.1774 5.18393 20.2388 4.19193 18.3614 4.38393ZM28.2234 1.56793L31.6474 0.415934C32.2021 0.245268 32.4794 0.405268 32.4794 0.895935C32.4794 1.0026 32.4474 1.17327 32.3834 1.40793C32.3408 1.6426 32.2768 1.8986 32.1914 2.17593C32.1274 2.43193 32.0634 2.70927 31.9994 3.00793C31.9568 3.3066 31.9354 3.57327 31.9354 3.80793C31.9354 4.27727 31.9354 4.66127 31.9354 4.95993C31.9354 5.23727 31.9461 5.42927 31.9674 5.53593C32.2874 11.5519 32.5114 16.0319 32.6394 18.9759V20.7359V22.4639C32.0634 23.1039 31.6474 23.4239 31.3914 23.4239C31.3274 23.4239 31.1248 23.3919 30.7834 23.3279C30.4421 23.2853 30.0794 23.2213 29.6954 23.1359C29.3114 23.0506 28.9701 22.9439 28.6714 22.8159C28.3728 22.7093 28.2234 22.5919 28.2234 22.4639V1.72793H27.9994C27.9781 1.72793 27.9888 1.63193 28.0314 1.43993C28.0954 1.2266 28.1594 1.04527 28.2234 0.895935V1.56793ZM45.6852 0.0639343C45.8985 0.0212682 46.1972 0.0212682 46.5812 0.0639343C46.9865 0.0852674 47.3812 0.149267 47.7652 0.255934C48.1492 0.3626 48.4799 0.522601 48.7572 0.735935C49.0345 0.949268 49.1732 1.2266 49.1732 1.56793V4.47993V7.35993C49.1305 9.85594 49.0665 12.3519 48.9812 14.8479C48.9172 17.3439 48.8425 19.8293 48.7572 22.3039V21.7919L46.0052 22.7839H45.7172C45.2265 22.7839 44.8852 22.6239 44.6932 22.3039L38.6452 12.0639L39.7012 21.4719C39.7012 21.4933 39.7012 21.5359 39.7012 21.5999C39.7225 21.6639 39.7332 21.7386 39.7332 21.8239C39.7332 22.4639 39.6159 22.7839 39.3812 22.7839H35.8932C35.6372 22.7839 35.3492 22.5386 35.0292 22.0479C34.7305 21.5359 34.5812 21.0559 34.5812 20.6079V20.3199C34.6879 17.2053 34.7945 14.0799 34.9012 10.9439C35.0079 7.80794 35.1145 4.6826 35.2212 1.56793C35.2639 0.949268 35.3812 0.618601 35.5732 0.575935C36.3839 0.447934 37.3759 0.383934 38.5492 0.383934C38.7412 0.383934 38.9332 0.383934 39.1252 0.383934C39.3172 0.383934 39.5092 0.394601 39.7012 0.415934C39.8719 0.693267 40.0425 1.02393 40.2132 1.40793C41.0879 3.51993 41.8559 5.36527 42.5172 6.94393C43.1785 8.50127 43.7332 9.8026 44.1812 10.8479C44.2452 10.9759 44.3305 11.0933 44.4372 11.1999V0.895935C44.4372 0.511935 44.8532 0.234601 45.6852 0.0639343ZM61.8969 1.05593L67.2089 0.415934C69.1503 0.181267 70.7076 0.533268 71.8809 1.47194C73.0543 2.38927 73.8223 3.74393 74.1849 5.53593C74.1423 6.2826 74.1103 7.02927 74.0889 7.77594C74.0676 8.5226 74.0996 9.26927 74.1849 10.0159C74.2489 10.5706 74.3023 11.0613 74.3449 11.4879C74.4089 11.8933 74.4623 12.2666 74.5049 12.6079C74.5689 12.9279 74.6116 13.2479 74.6329 13.5679C74.6756 13.8666 74.6969 14.1866 74.6969 14.5279C74.6969 15.7226 74.5796 16.7679 74.3449 17.6639C73.6196 20.3946 71.7956 21.9946 68.8729 22.4639C67.9343 22.5279 66.9956 22.5919 66.0569 22.6559C65.1183 22.6986 64.1796 22.7413 63.2409 22.7839H62.2169H61.5769L61.2569 22.4639V0.735935L61.8969 1.05593ZM68.2009 3.23194C68.0303 3.3386 67.8063 3.47727 67.5289 3.64793C67.2516 3.79727 66.9743 3.96793 66.6969 4.15993C66.4196 4.3306 66.1849 4.50127 65.9929 4.67193C65.8009 4.82127 65.7049 4.94927 65.7049 5.05593V20.1599L67.3689 18.8159C68.7129 18.6453 69.3849 17.8773 69.3849 16.5119C69.3849 15.9786 69.2996 15.4773 69.1289 15.0079C68.9583 14.5173 68.8729 13.9306 68.8729 13.2479V13.1839L70.0249 9.53593C70.0463 9.49327 70.0569 9.1946 70.0569 8.63993C70.0569 7.70127 69.9929 6.8906 69.8649 6.20794C69.7796 5.7386 69.6729 5.3546 69.5449 5.05593C69.4169 4.75727 69.2463 4.4266 69.0329 4.06393C68.7983 3.61594 68.5209 3.3386 68.2009 3.23194ZM77.0672 1.56793L80.4912 0.415934C81.0459 0.245268 81.3232 0.405268 81.3232 0.895935C81.3232 1.0026 81.2912 1.17327 81.2272 1.40793C81.1845 1.6426 81.1205 1.8986 81.0352 2.17593C80.9712 2.43193 80.9072 2.70927 80.8432 3.00793C80.8005 3.3066 80.7792 3.57327 80.7792 3.80793C80.7792 4.27727 80.7792 4.66127 80.7792 4.95993C80.7792 5.23727 80.7899 5.42927 80.8112 5.53593C81.1312 11.5519 81.3552 16.0319 81.4832 18.9759V20.7359V22.4639C80.9072 23.1039 80.4912 23.4239 80.2352 23.4239C80.1712 23.4239 79.9685 23.3919 79.6272 23.3279C79.2859 23.2853 78.9232 23.2213 78.5392 23.1359C78.1552 23.0506 77.8139 22.9439 77.5152 22.8159C77.2165 22.7093 77.0672 22.5919 77.0672 22.4639V1.72793H76.8432C76.8219 1.72793 76.8325 1.63193 76.8752 1.43993C76.9392 1.2266 77.0032 1.04527 77.0672 0.895935V1.56793ZM89.6969 0.223934C89.9956 0.223934 90.4969 0.213268 91.2009 0.191935C91.9263 0.149268 92.6623 0.149268 93.4089 0.191935C94.1556 0.234601 94.8169 0.330601 95.3929 0.479935C95.9903 0.629267 96.3103 0.874601 96.3529 1.21593L96.5129 4.38393C96.5343 4.72527 96.3209 4.89594 95.8729 4.89594C95.2116 4.89594 94.5929 4.82127 94.0169 4.67193C93.4409 4.50127 93.0036 4.40527 92.7049 4.38393H92.0649C91.4463 4.38393 90.8703 4.46927 90.3369 4.63993C89.8036 4.78927 89.5369 5.1626 89.5369 5.75994C89.5369 6.10127 89.6969 6.46393 90.0169 6.84793C90.3369 7.2106 90.7103 7.57327 91.1369 7.93594C91.5636 8.27727 91.9903 8.5866 92.4169 8.86393C92.8436 9.14127 93.1529 9.36527 93.3449 9.53593C93.4516 9.59993 93.5903 9.69593 93.7609 9.82393C93.9529 9.95193 94.1556 10.0906 94.3689 10.2399C94.5823 10.3893 94.7743 10.5493 94.9449 10.7199C95.1369 10.8906 95.2756 11.0506 95.3609 11.1999C96.6836 12.7786 97.3449 14.5706 97.3449 16.5759C97.3449 19.4346 96.0756 21.3973 93.5369 22.4639C92.4489 22.8906 91.2009 23.1039 89.7929 23.1039C88.1716 23.1039 86.7636 22.9439 85.5689 22.6239C84.9076 22.4319 84.5769 22.2186 84.5769 21.9839V18.3359C84.5769 18.2079 84.7689 18.1439 85.1529 18.1439C85.7929 18.1439 86.3903 18.2293 86.9449 18.3999C87.4996 18.5493 87.9263 18.6346 88.2249 18.6559H89.2489C90.2089 18.6559 90.9663 18.4853 91.5209 18.1439C92.0969 17.8026 92.3849 17.2479 92.3849 16.4799C92.3849 16.0106 92.1929 15.5413 91.8089 15.0719C91.4463 14.6026 91.0196 14.1653 90.5289 13.7599C90.0383 13.3333 89.5369 12.9599 89.0249 12.6399C88.5343 12.2986 88.1503 12.0319 87.8729 11.8399C87.7449 11.7546 87.5423 11.6053 87.2649 11.3919C86.9876 11.1573 86.6463 10.8693 86.2409 10.5279C85.0249 9.52527 84.4169 8.08527 84.4169 6.20794C84.4169 2.68793 86.1769 0.693268 89.6969 0.223934ZM106.139 0.223934H110.267C111.163 0.223934 111.611 0.447934 111.611 0.895935V4.38393C111.611 4.4906 111.504 4.54393 111.291 4.54393H111.099C110.758 4.47993 110.48 4.4266 110.267 4.38393C110.075 4.34127 109.894 4.30927 109.723 4.28794C109.552 4.24527 109.371 4.22393 109.179 4.22393C109.008 4.2026 108.774 4.19193 108.475 4.19193C107.536 4.19193 106.8 4.43727 106.267 4.92793C105.734 5.39727 105.467 6.10127 105.467 7.03994C105.467 7.99993 105.478 8.8426 105.499 9.56793C105.52 10.2719 105.51 10.8693 105.467 11.3599C105.424 11.8506 105.392 12.2773 105.371 12.6399C105.35 12.9813 105.328 13.2693 105.307 13.5039C105.286 13.5893 105.275 13.9093 105.275 14.4639C105.275 15.1679 105.339 15.8399 105.467 16.4799C105.638 17.4613 105.99 18.0693 106.523 18.3039C107.078 18.5386 107.792 18.6559 108.667 18.6559C109.179 18.6559 109.595 18.6133 109.915 18.5279C110.256 18.4213 110.544 18.3573 110.779 18.3359C110.8 18.3146 110.939 18.3039 111.195 18.3039C111.558 18.3039 111.75 18.3679 111.771 18.4959H111.259C111.387 19.0293 111.526 19.5839 111.675 20.1599C111.846 20.7359 111.931 21.2906 111.931 21.8239C111.931 22.1653 111.771 22.4319 111.451 22.6239C111.131 22.7946 110.747 22.9119 110.299 22.9759C109.872 23.0613 109.424 23.1039 108.955 23.1039C108.507 23.1039 108.144 23.1039 107.867 23.1039C106.63 23.1039 105.659 22.9973 104.955 22.7839C102.694 22.1226 101.424 20.6933 101.147 18.4959C101.168 17.7493 101.179 17.0026 101.179 16.2559C101.2 15.5093 101.19 14.7626 101.147 14.0159C101.04 12.3946 100.944 10.9759 100.859 9.75994C100.774 8.54394 100.71 7.5306 100.667 6.71993V6.36794C100.667 5.47194 100.774 4.70393 100.987 4.06393C101.755 1.7386 103.472 0.458602 106.139 0.223934ZM119.373 0.223934C120.376 0.181268 121.379 0.181268 122.381 0.223934C123.555 0.501268 124.515 0.885268 125.261 1.37593C126.029 1.8666 126.616 2.64527 127.021 3.71194C127.427 4.79994 127.64 5.63194 127.661 6.20794C127.683 6.9546 127.693 7.70127 127.693 8.44794C127.693 9.1946 127.693 9.94127 127.693 10.6879C127.693 12.0106 127.693 13.0453 127.693 13.7919C127.693 14.5386 127.683 14.9973 127.661 15.1679C127.661 15.5093 127.64 15.8613 127.597 16.2239C127.576 16.5866 127.544 16.9493 127.501 17.3119C126.989 21.1733 124.781 23.1039 120.877 23.1039C119.725 23.1039 118.787 22.9439 118.061 22.6239C115.523 21.4933 114.253 19.6693 114.253 17.1519V6.04794C114.253 5.02393 114.52 4.08527 115.053 3.23194C116.141 1.52527 117.581 0.522601 119.373 0.223934ZM120.205 4.38393C119.885 4.44793 119.597 4.67193 119.341 5.05593C119.085 5.4186 118.861 5.85594 118.669 6.36794C118.477 6.8586 118.328 7.38127 118.221 7.93594C118.115 8.46927 118.061 8.9386 118.061 9.34394V9.53593L118.893 16.9919C119.021 18.2293 119.683 18.8479 120.877 18.8479C122.008 18.8479 122.669 18.2826 122.861 17.1519C122.904 16.8533 122.936 16.5973 122.957 16.3839C123 16.1706 123.021 15.9893 123.021 15.8399V7.35993C123.021 5.18393 122.083 4.19193 120.205 4.38393ZM130.643 0.415934H137.939C138.601 0.415934 139.379 0.575934 140.275 0.895935C142.942 1.8986 144.275 3.82927 144.275 6.68793C144.275 8.79994 143.55 10.4639 142.099 11.6799C141.779 11.8933 141.449 12.1706 141.107 12.5119C140.787 12.8319 140.563 13.0026 140.435 13.0239L144.915 21.6319C144.937 21.6533 144.947 21.7599 144.947 21.9519C144.947 22.2933 144.755 22.4639 144.371 22.4639C144.286 22.4639 144.126 22.4426 143.891 22.3999C143.657 22.3359 143.358 22.3039 142.995 22.3039C142.483 22.3039 142.078 22.3893 141.779 22.5599C141.481 22.7093 141.193 22.7839 140.915 22.7839C140.425 22.7839 140.179 22.6773 140.179 22.4639V20.9599C140.179 20.9386 138.942 18.7306 136.467 14.3359C136.169 13.8879 135.945 13.6639 135.795 13.6639C135.497 13.6639 135.081 13.5573 134.547 13.3439C134.014 13.1093 133.598 12.8853 133.299 12.6719V13.1839L134.451 20.9599V22.3039C134.451 22.5386 134.291 22.6559 133.971 22.6559C133.758 22.6559 133.363 22.5386 132.787 22.3039C131.827 22.6453 131.07 22.8159 130.515 22.8159C130.515 22.3466 130.643 21.8879 130.899 21.4399C131.177 20.9706 131.315 20.6293 131.315 20.4159V20.1599L130.163 3.71194V0.735935C130.163 0.607934 130.323 0.501267 130.643 0.415934ZM135.795 3.71194C135.71 3.79727 135.603 3.90394 135.475 4.03193C135.347 4.15993 135.219 4.28793 135.091 4.41594C134.963 4.5226 134.846 4.62927 134.739 4.73594C134.654 4.82127 134.611 4.8746 134.611 4.89594V9.18394C134.611 9.50393 134.718 9.69593 134.931 9.75994C135.166 9.82394 135.443 9.82394 135.763 9.75994C136.083 9.69593 136.425 9.59993 136.787 9.47194C137.15 9.34394 137.481 9.24793 137.779 9.18394C138.782 8.94927 139.283 8.2026 139.283 6.94393C139.283 6.6026 139.177 6.23993 138.963 5.85593C138.75 5.4506 138.473 5.07727 138.131 4.73594C137.79 4.3946 137.406 4.12793 136.979 3.93593C136.574 3.7226 136.179 3.64793 135.795 3.71194ZM147.553 1.05593L152.865 0.415934C154.807 0.181267 156.364 0.533268 157.537 1.47194C158.711 2.38927 159.479 3.74393 159.841 5.53593C159.799 6.2826 159.767 7.02927 159.745 7.77594C159.724 8.5226 159.756 9.26927 159.841 10.0159C159.905 10.5706 159.959 11.0613 160.001 11.4879C160.065 11.8933 160.119 12.2666 160.161 12.6079C160.225 12.9279 160.268 13.2479 160.289 13.5679C160.332 13.8666 160.353 14.1866 160.353 14.5279C160.353 15.7226 160.236 16.7679 160.001 17.6639C159.276 20.3946 157.452 21.9946 154.529 22.4639C153.591 22.5279 152.652 22.5919 151.713 22.6559C150.775 22.6986 149.836 22.7413 148.897 22.7839H147.873H147.233L146.913 22.4639V0.735935L147.553 1.05593ZM153.857 3.23194C153.687 3.3386 153.463 3.47727 153.185 3.64793C152.908 3.79727 152.631 3.96793 152.353 4.15993C152.076 4.3306 151.841 4.50127 151.649 4.67193C151.457 4.82127 151.361 4.94927 151.361 5.05593V20.1599L153.025 18.8159C154.369 18.6453 155.041 17.8773 155.041 16.5119C155.041 15.9786 154.956 15.4773 154.785 15.0079C154.615 14.5173 154.529 13.9306 154.529 13.2479V13.1839L155.681 9.53593C155.703 9.49327 155.713 9.1946 155.713 8.63993C155.713 7.70127 155.649 6.8906 155.521 6.20794C155.436 5.7386 155.329 5.3546 155.201 5.05593C155.073 4.75727 154.903 4.4266 154.689 4.06393C154.455 3.61594 154.177 3.3386 153.857 3.23194Z" fill="#0D1925"/>
</svg>
