<svg width="187" height="25" viewBox="0 0 187 25" fill="none" xmlns="http://www.w3.org/2000/svg">
<path d="M8.60801 0.57609C8.80001 0.533424 9.00267 0.544091 9.21601 0.608091C9.45067 0.672091 9.67467 0.768091 9.88801 0.896091C10.1013 1.00276 10.272 1.13076 10.4 1.28009C10.5493 1.42942 10.624 1.58942 10.624 1.76009C10.624 1.99476 10.6133 2.14409 10.592 2.20809L9.76001 18.9761C9.67467 21.0241 8.57601 22.3468 6.46401 22.9441C5.69601 23.1574 4.81067 23.2641 3.80801 23.2641C3.50934 23.2641 3.17867 23.2428 2.81601 23.2001C2.45334 23.1788 2.05867 23.1468 1.63201 23.1041C0.544007 22.9761 7.30157e-06 22.5174 7.30157e-06 21.7281C7.30157e-06 21.2588 0.042674 20.7788 0.128007 20.2881C0.192007 19.7761 0.256007 19.2854 0.320007 18.8161C0.362674 18.6881 0.565341 18.6241 0.928007 18.6241C1.44001 18.6241 1.85601 18.6561 2.17601 18.7201C2.51734 18.7841 2.83734 18.8161 3.13601 18.8161C3.58401 18.8161 4.04267 18.7094 4.51201 18.4961C4.98134 18.2614 5.21601 17.9841 5.21601 17.6641V1.56809C5.21601 1.35476 5.34401 1.19476 5.60001 1.08809C5.85601 0.960091 6.16534 0.864091 6.52801 0.800091C6.89067 0.73609 7.26401 0.693424 7.64801 0.672091C8.03201 0.650757 8.35201 0.618757 8.60801 0.57609ZM17.5295 0.38409C18.5322 0.341424 19.5348 0.341424 20.5375 0.38409C21.7108 0.661424 22.6708 1.04542 23.4175 1.53609C24.1855 2.02676 24.7722 2.80542 25.1775 3.87209C25.5828 4.96009 25.7962 5.79209 25.8175 6.36809C25.8388 7.11476 25.8495 7.86142 25.8495 8.60809C25.8495 9.35476 25.8495 10.1014 25.8495 10.8481C25.8495 12.1708 25.8495 13.2054 25.8495 13.9521C25.8495 14.6988 25.8388 15.1574 25.8175 15.3281C25.8175 15.6694 25.7962 16.0214 25.7535 16.3841C25.7322 16.7468 25.7002 17.1094 25.6575 17.4721C25.1455 21.3334 22.9375 23.2641 19.0335 23.2641C17.8815 23.2641 16.9428 23.1041 16.2175 22.7841C13.6788 21.6534 12.4095 19.8294 12.4095 17.3121V6.20809C12.4095 5.18409 12.6762 4.24542 13.2095 3.39209C14.2975 1.68542 15.7375 0.682757 17.5295 0.38409ZM18.3615 4.54409C18.0415 4.60809 17.7535 4.83209 17.4975 5.21609C17.2415 5.57876 17.0175 6.01609 16.8255 6.52809C16.6335 7.01876 16.4842 7.54142 16.3775 8.09609C16.2708 8.62942 16.2175 9.09876 16.2175 9.50409V9.69609L17.0495 17.1521C17.1775 18.3894 17.8388 19.0081 19.0335 19.0081C20.1642 19.0081 20.8255 18.4428 21.0175 17.3121C21.0602 17.0134 21.0922 16.7574 21.1135 16.5441C21.1562 16.3308 21.1775 16.1494 21.1775 16.0001V7.52009C21.1775 5.34409 20.2388 4.35209 18.3615 4.54409ZM28.2235 1.72809L31.6475 0.57609C32.2022 0.405424 32.4795 0.565425 32.4795 1.05609C32.4795 1.16276 32.4475 1.33342 32.3835 1.56809C32.3408 1.80276 32.2768 2.05876 32.1915 2.33609C32.1275 2.59209 32.0635 2.86942 31.9995 3.16809C31.9568 3.46676 31.9355 3.73342 31.9355 3.96809C31.9355 4.43742 31.9355 4.82142 31.9355 5.12009C31.9355 5.39742 31.9462 5.58942 31.9675 5.69609C32.2875 11.7121 32.5115 16.1921 32.6395 19.1361V20.8961V22.6241C32.0635 23.2641 31.6475 23.5841 31.3915 23.5841C31.3275 23.5841 31.1248 23.5521 30.7835 23.4881C30.4422 23.4454 30.0795 23.3814 29.6955 23.2961C29.3115 23.2108 28.9702 23.1041 28.6715 22.9761C28.3728 22.8694 28.2235 22.7521 28.2235 22.6241V1.88809H27.9995C27.9782 1.88809 27.9888 1.79209 28.0315 1.60009C28.0955 1.38676 28.1595 1.20542 28.2235 1.05609V1.72809ZM45.6853 0.224091C45.8986 0.181424 46.1973 0.181424 46.5813 0.224091C46.9866 0.245424 47.3813 0.309423 47.7653 0.41609C48.1493 0.522757 48.4799 0.682757 48.7573 0.896091C49.0346 1.10942 49.1733 1.38676 49.1733 1.72809V4.64009V7.52009C49.1306 10.0161 49.0666 12.5121 48.9813 15.0081C48.9173 17.5041 48.8426 19.9894 48.7573 22.4641V21.9521L46.0053 22.9441H45.7173C45.2266 22.9441 44.8853 22.7841 44.6933 22.4641L38.6453 12.2241L39.7013 21.6321C39.7013 21.6534 39.7013 21.6961 39.7013 21.7601C39.7226 21.8241 39.7333 21.8988 39.7333 21.9841C39.7333 22.6241 39.6159 22.9441 39.3813 22.9441H35.8933C35.6373 22.9441 35.3493 22.6988 35.0293 22.2081C34.7306 21.6961 34.5813 21.2161 34.5813 20.7681V20.4801C34.6879 17.3654 34.7946 14.2401 34.9013 11.1041C35.0079 7.96809 35.1146 4.84276 35.2213 1.72809C35.2639 1.10942 35.3813 0.778758 35.5733 0.736092C36.3839 0.608091 37.3759 0.54409 38.5493 0.54409C38.7413 0.54409 38.9333 0.54409 39.1253 0.54409C39.3173 0.54409 39.5093 0.554757 39.7013 0.57609C39.8719 0.853423 40.0426 1.18409 40.2133 1.56809C41.0879 3.68009 41.8559 5.52542 42.5173 7.10409C43.1786 8.66142 43.7333 9.96276 44.1813 11.0081C44.2453 11.1361 44.3306 11.2534 44.4373 11.3601V1.05609C44.4373 0.672091 44.8533 0.394758 45.6853 0.224091ZM59.977 0.896091L60.329 0.57609H74.601C74.7077 0.57609 74.8143 0.661423 74.921 0.83209C75.049 0.981424 75.1557 1.16276 75.241 1.37609C75.3477 1.56809 75.433 1.76009 75.497 1.95209C75.561 2.14409 75.593 2.28276 75.593 2.36809C75.593 2.41076 75.561 2.51742 75.497 2.68809C75.433 2.83742 75.401 3.04009 75.401 3.29609C75.401 3.40276 75.465 3.48809 75.593 3.55209C75.401 4.02142 75.2303 4.29876 75.081 4.38409V3.61609L70.281 4.86409V5.05609C70.729 5.03476 70.953 5.22676 70.953 5.63209C70.953 5.84542 70.9423 5.98409 70.921 6.04809L69.769 21.9521L69.609 22.6241C69.225 22.5814 68.841 22.5814 68.457 22.6241C68.0517 22.7094 67.6997 22.7841 67.401 22.8481C67.1023 22.8908 66.8463 22.9228 66.633 22.9441H66.185C65.9503 22.9441 65.705 22.8694 65.449 22.7201C65.193 22.5494 64.9477 22.3254 64.713 22.0481C64.4997 21.7494 64.3183 21.4188 64.169 21.0561C64.0197 20.6721 63.945 20.2561 63.945 19.8081C63.945 19.3388 63.9557 19.0614 63.977 18.9761L65.129 5.69609V5.44009C65.129 5.05609 65.0757 4.86409 64.969 4.86409H59.977L59.497 5.37609C59.5183 5.35476 59.5183 5.29076 59.497 5.18409C59.4757 5.05609 59.465 4.98142 59.465 4.96009C59.465 4.72542 59.4757 4.58676 59.497 4.54409C59.753 2.17609 59.913 0.960091 59.977 0.896091ZM78.6785 1.72809L87.4785 0.57609H88.6305C88.5878 0.57609 88.5452 0.60809 88.5025 0.672091C88.4812 0.714758 88.4705 0.757425 88.4705 0.800091V0.896091C88.5772 1.62142 88.6518 2.17609 88.6945 2.56009C88.7585 2.92276 88.7905 3.33876 88.7905 3.80809C88.7905 3.76542 88.7798 3.80809 88.7585 3.93609C88.7372 4.04276 88.7052 4.18142 88.6625 4.35209C88.6412 4.52276 88.6198 4.69342 88.5985 4.86409C88.5772 5.03476 88.5665 5.16276 88.5665 5.24809C88.4172 5.24809 88.2572 5.24809 88.0865 5.24809C87.9372 5.24809 87.7878 5.23742 87.6385 5.21609C86.3372 5.10942 85.1958 5.01342 84.2145 4.92809C83.2545 4.82142 82.4545 4.74676 81.8145 4.70409H81.7185C81.6332 4.70409 81.4945 4.78942 81.3025 4.96009C81.1105 5.10942 80.9185 5.29076 80.7265 5.50409C80.5345 5.71742 80.3638 5.93076 80.2145 6.14409C80.0652 6.35742 79.9905 6.51742 79.9905 6.62409C79.9905 6.62409 80.0225 6.72009 80.0865 6.91209C80.1718 7.08276 80.2678 7.27476 80.3745 7.48809C80.5025 7.70142 80.6305 7.90409 80.7585 8.09609C80.9078 8.26676 81.0358 8.35209 81.1425 8.35209L86.6465 9.18409H87.9905C88.0118 9.18409 88.0118 9.21609 87.9905 9.28009C87.9692 9.32276 87.9585 9.34409 87.9585 9.34409C87.8305 9.85609 87.7132 10.3788 87.6065 10.9121C87.5212 11.4241 87.3825 11.8828 87.1905 12.2881C87.0198 12.6934 86.7852 13.0241 86.4865 13.2801C86.1878 13.5361 85.7825 13.6641 85.2705 13.6641H84.6305C84.2252 13.6214 83.8732 13.5894 83.5745 13.5681C83.2758 13.5468 83.0198 13.5254 82.8065 13.5041C82.5292 13.5254 82.2518 13.5361 81.9745 13.5361C81.6972 13.5361 81.4198 13.5361 81.1425 13.5361V18.4001C81.5905 18.4001 81.9852 18.2081 82.3265 17.8241L88.9505 18.9761C89.0572 19.0188 89.1105 19.1254 89.1105 19.2961C89.1105 19.5308 89.0038 19.9254 88.7905 20.4801C88.8972 20.7148 89.0038 20.9921 89.1105 21.3121C89.2385 21.6321 89.3025 21.9094 89.3025 22.1441C89.3025 22.5068 89.1318 22.7628 88.7905 22.9121C88.4705 23.0401 88.0758 23.1148 87.6065 23.1361C87.1372 23.1788 86.6572 23.1788 86.1665 23.1361C85.6972 23.1148 85.3025 23.1041 84.9825 23.1041H81.4945C78.5718 23.0828 77.0785 23.0294 77.0145 22.9441L76.6945 22.6241V1.21609C76.6945 1.10942 76.8012 1.05609 77.0145 1.05609C77.3345 1.05609 77.8892 1.28009 78.6785 1.72809ZM80.6625 8.35209C80.6838 8.60809 80.7265 8.73609 80.7905 8.73609C80.8758 8.73609 80.9398 8.69342 80.9825 8.60809C81.0252 8.52276 81.0252 8.43742 80.9825 8.35209C80.9612 8.26676 80.8545 8.26676 80.6625 8.35209ZM91.757 0.736092L92.077 0.38409C93.2717 0.341424 94.381 0.405424 95.405 0.57609C95.725 0.597424 95.885 0.757425 95.885 1.05609C95.885 1.46142 95.7463 1.87742 95.469 2.30409C95.1917 2.70942 95.053 3.05076 95.053 3.32809V3.71209L96.205 18.6561L97.229 19.6481H97.485H97.869C98.9143 19.4134 99.7677 19.2428 100.429 19.1361C101.112 19.0081 101.741 18.9441 102.317 18.9441C102.914 18.9441 103.48 19.1254 104.013 19.4881C103.309 21.0881 102.978 22.4534 103.021 23.5841C103 23.7121 102.872 23.7761 102.637 23.7761C102.488 23.7761 102.392 23.7654 102.349 23.7441L92.077 22.9441L91.757 22.6241V0.736092ZM106.991 1.72809L115.791 0.57609H116.943C116.9 0.57609 116.858 0.60809 116.815 0.672091C116.794 0.714758 116.783 0.757425 116.783 0.800091V0.896091C116.89 1.62142 116.964 2.17609 117.007 2.56009C117.071 2.92276 117.103 3.33876 117.103 3.80809C117.103 3.76542 117.092 3.80809 117.071 3.93609C117.05 4.04276 117.018 4.18142 116.975 4.35209C116.954 4.52276 116.932 4.69342 116.911 4.86409C116.89 5.03476 116.879 5.16276 116.879 5.24809C116.73 5.24809 116.57 5.24809 116.399 5.24809C116.25 5.24809 116.1 5.23742 115.951 5.21609C114.65 5.10942 113.508 5.01342 112.527 4.92809C111.567 4.82142 110.767 4.74676 110.127 4.70409H110.031C109.946 4.70409 109.807 4.78942 109.615 4.96009C109.423 5.10942 109.231 5.29076 109.039 5.50409C108.847 5.71742 108.676 5.93076 108.527 6.14409C108.378 6.35742 108.303 6.51742 108.303 6.62409C108.303 6.62409 108.335 6.72009 108.399 6.91209C108.484 7.08276 108.58 7.27476 108.687 7.48809C108.815 7.70142 108.943 7.90409 109.071 8.09609C109.22 8.26676 109.348 8.35209 109.455 8.35209L114.959 9.18409H116.303C116.324 9.18409 116.324 9.21609 116.303 9.28009C116.282 9.32276 116.271 9.34409 116.271 9.34409C116.143 9.85609 116.026 10.3788 115.919 10.9121C115.834 11.4241 115.695 11.8828 115.503 12.2881C115.332 12.6934 115.098 13.0241 114.799 13.2801C114.5 13.5361 114.095 13.6641 113.583 13.6641H112.943C112.538 13.6214 112.186 13.5894 111.887 13.5681C111.588 13.5468 111.332 13.5254 111.119 13.5041C110.842 13.5254 110.564 13.5361 110.287 13.5361C110.01 13.5361 109.732 13.5361 109.455 13.5361V18.4001C109.903 18.4001 110.298 18.2081 110.639 17.8241L117.263 18.9761C117.37 19.0188 117.423 19.1254 117.423 19.2961C117.423 19.5308 117.316 19.9254 117.103 20.4801C117.21 20.7148 117.316 20.9921 117.423 21.3121C117.551 21.6321 117.615 21.9094 117.615 22.1441C117.615 22.5068 117.444 22.7628 117.103 22.9121C116.783 23.0401 116.388 23.1148 115.919 23.1361C115.45 23.1788 114.97 23.1788 114.479 23.1361C114.01 23.1148 113.615 23.1041 113.295 23.1041H109.807C106.884 23.0828 105.391 23.0294 105.327 22.9441L105.007 22.6241V1.21609C105.007 1.10942 105.114 1.05609 105.327 1.05609C105.647 1.05609 106.202 1.28009 106.991 1.72809ZM108.975 8.35209C108.996 8.60809 109.039 8.73609 109.103 8.73609C109.188 8.73609 109.252 8.69342 109.295 8.60809C109.338 8.52276 109.338 8.43742 109.295 8.35209C109.274 8.26676 109.167 8.26676 108.975 8.35209ZM125.862 0.38409C127.526 0.320091 129.19 0.320091 130.854 0.38409C132.496 0.448091 133.318 0.565425 133.318 0.736092V1.05609L132.518 5.05609C132.475 5.16276 132.283 5.21609 131.942 5.21609C131.494 5.21609 131.056 5.16276 130.63 5.05609C130.224 4.94942 129.904 4.88542 129.67 4.86409H128.422C127.334 4.86409 126.48 5.01343 125.862 5.31209C125.243 5.58942 124.859 6.16542 124.71 7.04009C124.752 7.61609 124.774 8.19209 124.774 8.76809C124.774 9.34409 124.752 9.93076 124.71 10.5281C124.667 11.2534 124.603 11.8934 124.518 12.4481C124.432 13.0028 124.379 13.4614 124.358 13.8241V14.6561C124.358 15.1681 124.379 15.6801 124.422 16.1921C124.486 16.7041 124.603 17.1734 124.774 17.6001C124.944 18.0054 125.179 18.3468 125.478 18.6241C125.798 18.8801 126.224 19.0081 126.758 19.0081C127.952 19.0081 128.55 18.5601 128.55 17.6641C128.55 17.6214 128.518 17.4934 128.454 17.2801C128.39 17.0668 128.358 16.8001 128.358 16.4801V16.3201C128.678 15.6588 128.902 15.1468 129.03 14.7841C129.158 14.4001 129.264 13.9201 129.35 13.3441C129.307 13.3228 129.254 13.3121 129.19 13.3121C128.806 13.3121 128.39 13.4188 127.942 13.6321C127.494 13.8454 127.184 13.9734 127.014 14.0161H126.758C126.395 14.0161 126.214 13.8988 126.214 13.6641V9.85609L126.022 9.53609C127.003 9.57876 127.974 9.63209 128.934 9.69609C129.894 9.73876 130.864 9.79209 131.846 9.85609C132.08 9.87742 132.326 9.89876 132.582 9.92009C132.838 9.94142 133.083 9.97342 133.318 10.0161C133.254 10.1228 133.094 10.2828 132.838 10.4961C132.603 10.6881 132.486 10.7948 132.486 10.8161C132.486 10.9228 132.496 10.9868 132.518 11.0081L133.67 16.6401V17.1841C133.67 20.2774 132.336 22.1974 129.67 22.9441C128.944 23.1574 128.123 23.2641 127.206 23.2641C123.643 23.2641 121.542 21.6108 120.902 18.3041C121.072 16.6614 121.072 15.0081 120.902 13.3441C120.624 12.3628 120.4 11.4988 120.23 10.7521C120.08 9.98409 119.974 9.35476 119.91 8.86409V7.68009C119.91 6.27209 120.07 5.17342 120.39 4.38409C121.456 1.93076 123.28 0.597424 125.862 0.38409ZM136.612 0.57609H143.908C144.569 0.57609 145.348 0.73609 146.244 1.05609C148.911 2.05876 150.244 3.98942 150.244 6.84809C150.244 8.96009 149.519 10.6241 148.068 11.8401C147.748 12.0534 147.417 12.3308 147.076 12.6721C146.756 12.9921 146.532 13.1628 146.404 13.1841L150.884 21.7921C150.905 21.8134 150.916 21.9201 150.916 22.1121C150.916 22.4534 150.724 22.6241 150.34 22.6241C150.255 22.6241 150.095 22.6028 149.86 22.5601C149.625 22.4961 149.327 22.4641 148.964 22.4641C148.452 22.4641 148.047 22.5494 147.748 22.7201C147.449 22.8694 147.161 22.9441 146.884 22.9441C146.393 22.9441 146.148 22.8374 146.148 22.6241V21.1201C146.148 21.0988 144.911 18.8908 142.436 14.4961C142.137 14.0481 141.913 13.8241 141.764 13.8241C141.465 13.8241 141.049 13.7174 140.516 13.5041C139.983 13.2694 139.567 13.0454 139.268 12.8321V13.3441L140.42 21.1201V22.4641C140.42 22.6988 140.26 22.8161 139.94 22.8161C139.727 22.8161 139.332 22.6988 138.756 22.4641C137.796 22.8054 137.039 22.9761 136.484 22.9761C136.484 22.5068 136.612 22.0481 136.868 21.6001C137.145 21.1308 137.284 20.7894 137.284 20.5761V20.3201L136.132 3.87209V0.896091C136.132 0.768091 136.292 0.661423 136.612 0.57609ZM141.764 3.87209C141.679 3.95742 141.572 4.06409 141.444 4.19209C141.316 4.32009 141.188 4.44809 141.06 4.57609C140.932 4.68276 140.815 4.78942 140.708 4.89609C140.623 4.98142 140.58 5.03476 140.58 5.05609V9.34409C140.58 9.66409 140.687 9.85609 140.9 9.92009C141.135 9.98409 141.412 9.98409 141.732 9.92009C142.052 9.85609 142.393 9.76009 142.756 9.63209C143.119 9.50409 143.449 9.40809 143.748 9.34409C144.751 9.10942 145.252 8.36276 145.252 7.10409C145.252 6.76276 145.145 6.40009 144.932 6.01609C144.719 5.61076 144.441 5.23742 144.1 4.89609C143.759 4.55476 143.375 4.28809 142.948 4.09609C142.543 3.88276 142.148 3.80809 141.764 3.87209ZM157.17 0.57609L162.802 0.38409L167.634 22.1441C167.741 22.5068 167.847 22.7201 167.954 22.7841C167.229 22.8268 166.546 22.8694 165.906 22.9121C165.266 22.9334 164.679 22.9441 164.146 22.9441H163.474L163.314 22.7841H163.602C163.602 22.6348 163.538 22.4001 163.41 22.0801C163.282 21.7388 163.133 21.3974 162.962 21.0561C162.791 20.6934 162.621 20.3628 162.45 20.0641C162.301 19.7654 162.205 19.5734 162.162 19.4881C161.906 19.0188 161.565 18.7841 161.138 18.7841C160.775 18.7841 160.562 18.7948 160.498 18.8161C160.199 18.8374 159.837 18.8801 159.41 18.9441C159.005 18.9868 158.535 19.0508 158.002 19.1361C157.639 19.2001 157.415 19.2961 157.33 19.4241C157.245 19.5521 157.234 19.7014 157.298 19.8721C157.362 20.0214 157.458 20.1921 157.586 20.3841C157.735 20.5761 157.874 20.7681 158.002 20.9601L156.178 22.3041V24.3201L151.41 22.7521L156.498 1.56809C156.647 0.906757 156.871 0.57609 157.17 0.57609ZM159.314 8.51209C159.25 8.66142 159.186 8.83209 159.122 9.02409C159.079 9.19476 159.037 9.36542 158.994 9.53609C158.269 12.8854 157.938 14.5921 158.002 14.6561L158.162 14.8161L160.978 14.7521H159.986C159.943 14.7521 159.901 14.5068 159.858 14.0161C159.815 13.5041 159.783 12.9174 159.762 12.2561C159.741 11.5948 159.719 10.9334 159.698 10.2721C159.677 9.58942 159.666 9.06676 159.666 8.70409C159.581 8.51209 159.463 8.44809 159.314 8.51209ZM168.936 0.0640907C169.406 0.0214246 169.886 0.0320911 170.376 0.0960903C170.867 0.138758 171.326 0.202758 171.752 0.288092C172.179 0.352091 172.574 0.416091 172.936 0.480091C173.299 0.54409 173.587 0.57609 173.8 0.57609C174.184 0.57609 174.387 0.405423 174.408 0.0640907L174.6 0.38409L177.64 8.70409H177.864C177.992 8.70409 177.939 8.57609 177.704 8.32009C177.491 8.06409 177.384 7.77609 177.384 7.45609C177.384 7.41342 177.395 7.38142 177.416 7.36009L181.384 1.56809C181.662 1.16276 181.8 0.768091 181.8 0.38409H185.384C185.704 0.38409 185.918 0.501424 186.024 0.736092H185.384L186.376 20.3201V22.4641C186.376 22.6988 186.163 22.8161 185.736 22.8161C185.416 22.8161 185.15 22.7841 184.936 22.7201C184.723 22.6561 184.531 22.6241 184.36 22.6241C183.955 22.6241 183.646 22.6774 183.432 22.7841C183.24 22.8908 183.006 22.9441 182.728 22.9441C181.832 22.9441 181.384 22.3148 181.384 21.0561V20.1281C181.47 18.5068 181.534 17.0881 181.576 15.8721C181.64 14.6561 181.683 13.6428 181.704 12.8321C181.726 12.7254 181.736 12.3094 181.736 11.5841C181.736 11.3708 181.736 11.1681 181.736 10.9761C181.736 10.7628 181.726 10.5494 181.704 10.3361C181.427 9.88809 181.075 9.66409 180.648 9.66409C180.52 9.66409 180.435 9.72809 180.392 9.85609L179.08 16.8321C179.016 17.1521 179.176 17.4294 179.56 17.6641H179.4C178.803 17.6641 178.355 17.6108 178.056 17.5041C177.779 17.3974 177.448 17.3441 177.064 17.3441V17.6641C177.064 17.6428 177.032 17.5788 176.968 17.4721C176.904 17.3441 176.83 17.1841 176.744 16.9921C175.72 14.3894 174.888 12.3414 174.248 10.8481C174.078 10.4001 173.971 10.1761 173.928 10.1761H173.672V22.5921C173.523 22.5921 173.363 22.5921 173.192 22.5921C173.043 22.5921 172.894 22.6028 172.744 22.6241C172.083 22.7308 171.582 22.8161 171.24 22.8801C170.92 22.9228 170.536 22.9441 170.088 22.9441C170.024 22.9441 169.896 22.9121 169.704 22.8481C169.512 22.7841 169.31 22.6988 169.096 22.5921C168.904 22.4854 168.723 22.3468 168.552 22.1761C168.382 22.0054 168.296 21.8241 168.296 21.6321V18.3041L169.096 1.56809C169.096 1.54676 169.096 1.52542 169.096 1.50409C169.118 1.46142 169.128 1.41876 169.128 1.37609C169.128 1.14142 169.064 0.70409 168.936 0.0640907Z" fill="#0D1925"/>
</svg>
